<svg version="1.1" id="Layer_1" xmlns="http://www.w3.org/2000/svg" xmlns:xlink="http://www.w3.org/1999/xlink" x="0px" y="0px"
	 width="100%" viewBox="0 0 1024 1024" enable-background="new 0 0 1024 1024" xml:space="preserve">
<path fill="#000000" opacity="1.000000" stroke="none" 
	d="
M474.000000,1025.000000 
	C316.000000,1025.000000 158.500000,1025.000000 1.000000,1025.000000 
	C1.000000,683.666687 1.000000,342.333344 1.000000,1.000000 
	C342.333344,1.000000 683.666687,1.000000 1025.000000,1.000000 
	C1025.000000,342.333344 1025.000000,683.666687 1025.000000,1025.000000 
	C841.500000,1025.000000 658.000000,1025.000000 474.000000,1025.000000 
M233.827606,601.222900 
	C233.827606,601.222900 233.760376,601.255371 234.069565,601.797180 
	C235.138733,602.421265 236.207901,603.045349 237.620026,604.115784 
	C238.438538,604.451294 239.257050,604.786743 240.678406,605.543945 
	C241.134293,605.712463 241.590179,605.880981 242.449203,606.545410 
	C248.850769,608.045227 255.243622,610.800537 261.655304,610.845093 
	C310.547424,611.185059 359.443329,611.034363 408.337646,610.895325 
	C412.076599,610.884705 415.812439,609.791870 420.057129,609.287354 
	C420.382172,609.188293 420.707214,609.089233 421.635071,609.107483 
	C425.303711,607.611450 428.972351,606.115356 433.388428,604.335327 
	C436.547485,603.536865 439.664795,602.399231 442.873505,602.004700 
	C451.850098,600.900940 460.864410,600.104370 470.750427,599.486511 
	C481.016144,599.419739 491.281830,599.352905 502.169159,599.645386 
	C514.903992,600.854126 527.640930,602.041443 540.372437,603.283875 
	C544.469116,603.683594 548.551636,604.228516 553.460327,605.047668 
	C554.048950,605.063599 554.637512,605.079590 555.684326,605.501099 
	C559.265869,606.147095 562.847351,606.793091 567.394714,607.811035 
	C568.076782,607.908447 568.758911,608.005798 569.433533,608.347168 
	C569.695007,608.325989 569.956421,608.304871 571.100769,608.662903 
	C572.681763,608.810974 574.262756,608.959106 576.332947,609.554382 
	C579.004211,610.361633 581.652161,611.258545 584.351013,611.959229 
	C592.455994,614.063110 600.580872,616.090393 609.370300,618.645935 
	C610.183472,618.795288 610.996582,618.944641 612.260864,619.565552 
	C615.018433,620.549927 617.776001,621.534302 621.415466,622.971191 
	C622.060425,623.103394 622.705322,623.235596 623.731323,623.813843 
	C624.425598,624.135803 625.119873,624.457764 626.464233,625.027893 
	C626.695923,625.039978 626.927551,625.052002 627.536621,625.538147 
	C634.626770,628.556519 641.716919,631.574890 649.668579,635.249146 
	C650.336426,635.518005 651.004333,635.786865 651.894958,636.530701 
	C653.934204,637.590942 655.973450,638.651184 659.367432,640.461975 
	C659.854431,640.633362 660.341370,640.804810 661.048096,641.462097 
	C663.447449,642.863342 665.755920,644.484619 668.299805,645.536133 
	C669.097107,645.865723 670.528320,644.661682 672.338928,643.533203 
	C672.575745,642.976624 672.812561,642.420044 673.545715,641.494995 
	C676.975159,636.394714 680.896179,631.551697 683.728210,626.138855 
	C689.062866,615.942627 695.655029,610.972839 708.443481,612.595032 
	C724.379639,614.616516 740.666626,613.651428 756.436401,608.855774 
	C779.628357,601.802795 796.489990,587.699768 804.385315,564.598389 
	C814.939819,533.716248 817.131592,501.995880 809.887329,470.067749 
	C804.993774,448.499756 792.840637,431.611969 772.512146,422.169220 
	C759.760620,416.246002 746.370483,411.393860 732.858704,407.464417 
	C679.390137,391.914825 624.750183,382.867462 569.134766,380.110626 
	C528.933167,378.117828 489.292633,381.804871 450.505829,393.185974 
	C445.520111,394.648956 441.700165,396.591156 440.119019,401.908691 
	C438.986633,405.716888 436.830872,406.692657 433.038483,404.273590 
	C425.261749,399.312988 416.593933,397.341705 407.345306,397.427704 
	C391.852905,397.571716 376.358124,397.465027 360.864349,397.458618 
	C328.377563,397.445190 295.887146,397.721680 263.405121,397.321014 
	C236.965042,396.994873 212.506302,418.554504 213.329346,447.514313 
	C214.398560,485.135162 213.554321,522.809814 213.598022,560.461243 
	C213.602051,563.932617 214.070572,567.403381 214.346695,571.644531 
	C214.527725,572.122681 214.708755,572.600830 214.797073,573.801331 
	C216.327499,581.193176 219.271103,587.846375 225.086334,593.750366 
	C227.391907,595.777649 229.697479,597.804932 232.021347,599.992249 
	C232.021347,599.992249 232.182129,600.002014 232.366943,600.540344 
	C232.863678,600.790710 233.360397,601.041077 233.827606,601.222900 
z"/>
<path fill="#A33A5A" opacity="1.000000" stroke="none" 
	d="
M421.032257,608.990173 
	C420.707214,609.089233 420.382172,609.188293 419.361023,609.168030 
	C418.074829,608.974915 417.484772,608.901123 416.917725,608.432617 
	C417.252899,604.330322 415.351807,602.965393 411.853302,602.987793 
	C403.521027,603.041199 395.188110,602.977966 386.855438,602.978516 
	C345.358643,602.981445 303.861816,602.965088 262.365356,603.088989 
	C260.764771,603.093750 259.168274,604.464905 257.569855,605.199341 
	C259.133575,605.801880 260.683044,606.885559 262.263275,606.932373 
	C277.733612,607.391235 293.209991,607.644592 308.682159,608.050598 
	C310.795410,608.106018 312.895111,608.677429 314.635529,609.198608 
	C293.862976,609.670959 273.417236,611.756836 253.095627,607.675598 
	C254.095047,603.199585 253.545151,600.693359 248.302902,600.693298 
	C245.490097,600.693298 241.908096,599.754272 240.017502,597.881653 
	C235.453156,593.360779 231.046310,588.419556 227.773636,582.933411 
	C224.815231,577.973999 221.959702,572.145325 221.668549,566.563782 
	C220.968597,553.145935 222.020233,539.646423 221.915726,526.183350 
	C221.866028,519.780823 220.731216,513.391052 220.211868,506.985443 
	C220.038345,504.845123 220.100052,502.658569 220.315369,500.519440 
	C220.793060,495.773407 221.847656,491.051361 221.932495,486.306427 
	C222.163925,473.363892 222.014572,460.414581 222.015732,447.467957 
	C222.016205,442.320587 222.015808,437.173187 222.015808,431.563782 
	C219.381180,434.385529 217.221359,436.698792 215.064056,438.623352 
	C217.666122,432.083130 220.075211,425.840118 222.964096,419.827606 
	C224.036469,417.595764 226.233810,415.904480 227.856064,414.317627 
	C226.539703,417.278992 225.285416,419.889404 224.031128,422.499817 
	C224.483521,422.806641 224.935913,423.113434 225.388321,423.420258 
	C230.312134,419.111145 235.235962,414.802002 240.654358,410.060059 
	C239.288986,409.242828 238.084625,408.521973 237.043793,407.509216 
	C240.823792,405.182007 244.440262,403.146729 247.957825,401.443176 
	C247.309296,403.421539 246.759659,405.068176 246.019730,407.284821 
	C247.963501,407.173737 249.081070,407.112823 250.198242,407.045502 
	C261.309052,406.376221 272.413788,405.313568 283.532135,405.144592 
	C294.951599,404.971039 306.382935,405.862823 317.811554,405.945343 
	C338.638519,406.095673 359.467285,405.998505 380.295319,405.992645 
	C390.578308,405.989746 400.862457,406.034088 411.143280,405.875031 
	C413.006714,405.846222 414.856537,404.934906 417.052551,404.338715 
	C415.626953,401.922424 414.795074,400.512451 414.321411,399.162506 
	C416.781860,399.817871 418.884155,400.413208 420.976471,401.396332 
	C419.576935,406.444336 421.217621,408.901642 426.167175,409.144714 
	C427.451233,409.207794 428.713593,409.711334 430.045868,410.361298 
	C435.698761,416.143707 441.291718,421.577423 446.884674,427.011108 
	C447.058289,424.973785 446.986938,422.795654 445.861816,421.727905 
	C441.351501,417.447662 441.779846,413.157684 444.763489,408.309540 
	C446.280426,405.844696 446.726013,403.168854 443.140503,401.669952 
	C445.983429,399.263580 448.347534,396.006958 451.361938,395.209869 
	C465.544586,391.459778 479.784943,387.641571 494.239441,385.291656 
	C506.958649,383.223877 519.974670,382.747803 532.886536,382.184662 
	C540.982300,381.831573 549.125854,382.715149 557.251343,382.864197 
	C565.687317,383.018890 574.128967,382.863922 582.564453,383.032166 
	C586.352051,383.107697 590.130432,383.640411 593.830933,384.310577 
	C592.195740,385.734955 590.779419,387.364990 589.063965,387.791290 
	C583.773560,389.105927 578.243774,389.546295 573.045593,391.116364 
	C568.283203,392.554871 562.092346,392.209290 560.433228,399.029999 
	C560.221313,399.901154 558.358826,400.357849 557.278076,401.033936 
	C556.054871,401.799194 554.027405,402.391724 553.775330,403.411743 
	C552.367676,409.106506 548.214172,409.251343 543.679993,409.003601 
	C540.128967,408.809479 537.542419,409.853943 536.800293,413.873566 
	C536.603333,414.940155 535.360046,416.493103 534.424561,416.628235 
	C529.928711,417.277802 529.508606,420.717896 529.196289,423.993622 
	C528.850342,427.621246 529.039001,431.299805 528.633606,435.068268 
	C527.521545,435.144012 526.770691,435.107727 525.761536,434.882019 
	C524.326599,434.824493 523.149963,434.956421 521.574341,435.180969 
	C519.816772,435.245331 518.458374,435.217010 516.745483,434.957092 
	C511.183838,434.148102 505.878021,432.333984 500.604309,436.051147 
	C498.831787,436.175598 497.459961,436.200317 495.744324,435.983795 
	C489.038513,434.600677 482.779510,434.335205 476.668732,438.027649 
	C475.935272,438.153259 475.504608,438.159332 474.863403,437.982788 
	C473.764435,438.073151 472.876068,438.346191 471.609528,438.753906 
	C469.141327,439.165070 467.051270,439.441498 464.839050,439.665466 
	C464.433319,439.579254 464.201080,439.674469 463.665527,440.004425 
	C462.575043,440.148468 461.839264,440.186707 460.847473,440.017151 
	C459.428680,440.229218 458.265869,440.649078 457.016296,441.396820 
	C456.802582,442.157867 456.675598,442.591034 456.271759,443.255798 
	C455.838684,453.619415 455.672119,463.751312 455.568176,473.883850 
	C455.564423,474.247498 456.178223,474.617462 456.616272,475.355408 
	C457.173126,476.632446 457.617920,477.538574 458.276489,478.719574 
	C460.576202,479.282318 462.714844,480.014587 464.738312,479.774841 
	C470.838593,479.052032 476.894073,477.951233 482.958496,477.395935 
	C482.326080,480.683044 481.365295,483.548126 481.158142,486.466705 
	C480.856232,490.720306 480.786987,495.045959 481.245575,499.272888 
	C481.452209,501.177826 482.762512,503.938721 484.280090,504.548157 
	C489.436401,506.618927 491.445862,511.526184 494.527740,515.026733 
	C488.719421,516.206299 483.353424,517.381958 477.623901,518.682434 
	C476.496979,518.843628 475.733612,518.880066 474.622070,518.731140 
	C468.156250,517.555298 462.300018,518.031738 456.979065,522.116699 
	C456.958862,534.142700 456.958862,545.676697 456.958862,557.605225 
	C467.081604,556.569336 476.554718,555.599854 486.103943,554.942993 
	C487.140686,556.339233 488.135040,558.374084 489.056244,558.341553 
	C493.005127,558.201721 495.977875,560.459412 499.402466,561.551514 
	C505.767731,563.581299 509.118195,567.956848 510.833344,573.684448 
	C511.907318,577.270752 513.895691,578.189270 517.002686,577.842163 
	C525.694580,576.870972 532.301392,582.640442 539.550903,584.843506 
	C533.109680,584.604004 527.118652,583.933655 521.157593,584.138123 
	C508.033081,584.588318 494.814301,584.667358 481.838531,586.416016 
	C468.370300,588.230957 454.092346,587.603577 441.820496,595.916016 
	C432.524384,593.116394 426.570831,600.749695 418.641327,601.613464 
	C418.603119,602.197632 418.564911,602.781799 418.526703,603.365967 
	C420.387543,603.971436 422.248413,604.576965 424.008850,605.478271 
	C422.949738,606.846191 421.990997,607.918152 421.032257,608.990173 
M310.499908,600.156982 
	C342.816620,600.192139 375.150513,599.600647 407.443939,600.485413 
	C428.542847,601.063477 446.918030,581.961853 446.514587,561.789368 
	C445.738647,522.990784 446.268646,484.165649 446.299438,445.351562 
	C446.315399,425.219879 430.948425,409.092468 410.683899,408.463989 
	C399.699524,408.123322 388.697876,408.324005 377.703979,408.309540 
	C339.390167,408.259155 301.076141,408.122498 262.762665,408.215973 
	C239.742233,408.272125 224.041092,424.061798 224.010742,446.784241 
	C223.959793,484.931976 224.528595,523.093506 223.649475,561.221863 
	C223.187057,581.277100 241.630310,601.037354 262.527344,600.313782 
	C278.167969,599.772278 293.841248,600.174072 310.499908,600.156982 
M443.723328,585.960815 
	C444.820160,585.799194 446.805908,585.783020 446.860229,585.450928 
	C447.097748,583.998962 446.775085,582.455322 446.655731,580.944946 
	C446.218079,580.946167 445.780457,580.947388 445.342804,580.948608 
	C444.732361,582.422363 444.121918,583.896179 443.723328,585.960815 
M438.715820,591.980591 
	C439.732086,591.645142 440.748322,591.309631 441.764587,590.974121 
	C441.389740,590.466553 441.014893,589.959045 440.640045,589.451538 
	C439.946045,590.115845 439.252014,590.780212 438.715820,591.980591 
M242.135361,408.443481 
	C242.445099,408.257202 242.754837,408.070923 243.064575,407.884644 
	C242.974915,407.770874 242.820450,407.549866 242.805176,407.559113 
	C242.497406,407.745178 242.205658,407.957733 242.135361,408.443481 
M476.073425,558.263245 
	C476.003113,558.260193 475.932800,558.257202 476.073425,558.263245 
M448.499084,429.472809 
	C448.499084,429.472809 448.514435,429.515717 448.499084,429.472809 
z"/>
<path fill="#8F1548" opacity="1.000000" stroke="none" 
	d="
M442.153381,596.038025 
	C454.092346,587.603577 468.370300,588.230957 481.838531,586.416016 
	C494.814301,584.667358 508.033081,584.588318 521.157593,584.138123 
	C527.118652,583.933655 533.109680,584.604004 539.979614,584.881348 
	C542.586975,584.938049 544.301880,584.990967 546.399292,585.183960 
	C551.534058,585.797241 556.286255,586.270325 561.435425,586.777832 
	C562.893311,586.863892 563.954224,586.915466 565.191528,587.101440 
	C565.919983,587.191528 566.472046,587.147156 567.393921,587.177612 
	C569.514343,587.497864 571.265015,587.743347 573.235779,588.155396 
	C573.981445,588.452637 574.506897,588.583374 575.460327,588.751465 
	C585.906006,590.564697 595.923767,592.340454 606.249878,594.309082 
	C608.782288,595.188354 610.981201,595.973389 613.234131,596.546021 
	C637.368286,602.680298 660.534668,611.229675 681.958008,624.349487 
	C678.944519,630.427734 675.996948,636.145569 673.049377,641.863464 
	C672.812561,642.420044 672.575745,642.976624 671.694702,643.817383 
	C667.643127,643.059753 664.235779,642.017944 660.828369,640.976196 
	C660.341370,640.804810 659.854431,640.633362 658.563721,639.962036 
	C655.730713,638.326721 653.701416,637.191223 651.672180,636.055725 
	C651.004333,635.786865 650.336426,635.518005 649.141724,634.696655 
	C641.462952,631.117432 634.311035,628.090698 627.159119,625.063965 
	C626.927551,625.052002 626.695923,625.039978 626.008118,624.731323 
	C624.818054,624.079163 624.084167,623.723511 623.350281,623.367798 
	C622.705322,623.235596 622.060425,623.103394 620.772461,622.647217 
	C617.356262,621.246826 614.583008,620.170410 611.809753,619.093994 
	C610.996582,618.944641 610.183472,618.795288 608.840088,618.204468 
	C597.487793,614.877686 586.665771,611.992432 575.843750,609.107239 
	C574.262756,608.959106 572.681763,608.810974 570.567139,608.476318 
	C569.828430,608.250854 569.630920,608.188660 569.440979,608.103210 
	C568.758911,608.005798 568.076782,607.908447 566.634155,607.544678 
	C562.324463,606.550720 558.775269,605.823181 555.226135,605.095581 
	C554.637512,605.079590 554.048950,605.063599 552.751099,604.752075 
	C535.389343,600.985962 518.596680,598.884094 501.547546,599.286072 
	C491.281830,599.352905 481.016144,599.419739 470.078064,599.160889 
	C459.356110,599.452454 449.306549,600.069641 439.449585,600.397644 
	C440.479248,598.751709 441.316315,597.394897 442.153381,596.038025 
z"/>
<path fill="#8B3F57" opacity="1.000000" stroke="none" 
	d="
M673.297546,641.679199 
	C675.996948,636.145569 678.944519,630.427734 682.215210,624.142700 
	C684.995850,620.529114 687.645996,617.615051 689.857727,614.399536 
	C692.146057,611.072632 695.029175,609.555969 699.362915,610.221680 
	C717.220398,612.149536 734.613525,610.806641 751.968567,608.601257 
	C753.028748,608.466492 753.992554,607.573486 755.350708,607.019043 
	C756.779053,606.666382 757.857849,606.327942 759.206665,605.768433 
	C760.983948,605.009216 762.491211,604.470947 764.272827,603.872314 
	C765.033142,603.538757 765.519104,603.265686 766.346741,602.904419 
	C770.462708,600.453003 774.417236,598.328369 777.957947,595.655640 
	C781.144775,593.250000 783.479248,589.494263 786.902039,587.672607 
	C792.368408,584.763367 795.006592,579.957092 797.139893,574.864014 
	C800.829834,566.054871 804.195862,557.085876 807.194519,548.017517 
	C810.727844,537.332397 811.392883,526.205017 811.191406,514.785645 
	C811.561218,514.039978 811.761169,513.518799 811.970642,512.530518 
	C811.643921,502.704895 811.307800,493.346252 810.906921,483.712463 
	C810.578064,482.941010 810.313904,482.444733 810.047485,481.709167 
	C810.045288,481.469849 810.021118,480.991791 809.993225,480.630188 
	C809.324341,478.507599 808.683350,476.746613 808.040283,474.549316 
	C808.001770,472.077301 807.965271,470.041504 807.866150,467.666382 
	C806.550537,465.213745 805.297485,463.100525 804.045654,460.657166 
	C804.039673,459.886993 804.032410,459.446869 804.148193,458.765717 
	C803.517334,457.346527 802.763550,456.168427 801.928955,454.638367 
	C799.919495,451.177277 797.990845,448.068146 795.963623,444.650452 
	C794.934692,443.527374 794.004333,442.712891 792.927917,441.720093 
	C792.574341,441.313263 792.345093,441.109253 791.984863,440.601440 
	C789.595154,438.163300 787.314697,436.053467 784.911621,433.697662 
	C784.532593,432.965454 784.276184,432.479218 783.848755,431.683746 
	C782.117859,430.911682 780.557983,430.448853 778.763184,429.975159 
	C778.528259,429.964233 778.057983,429.955505 777.866028,429.680511 
	C774.404419,425.303375 770.492859,422.296509 764.671753,421.945038 
	C763.234619,421.269623 762.130310,420.629425 760.882324,419.681580 
	C757.492432,417.914459 754.246216,416.454987 750.575073,414.988434 
	C748.450134,414.976776 746.750061,414.972137 744.928345,414.698059 
	C744.211487,413.951141 743.616333,413.473663 742.694580,412.983826 
	C741.931946,412.967041 741.496094,412.962585 740.997620,412.719849 
	C740.293152,411.984314 739.651184,411.487091 738.600830,410.974426 
	C733.130188,409.613434 728.067993,408.267914 722.658691,406.740753 
	C719.886414,406.358856 717.461243,406.158569 714.735962,405.765686 
	C711.937073,404.399872 709.547180,402.722260 706.917603,402.154358 
	C700.675476,400.806244 694.319824,399.983917 687.784363,398.786255 
	C687.036682,398.447876 686.514587,398.272400 685.642334,398.113831 
	C682.864319,397.422821 680.436646,396.714874 677.651245,395.806488 
	C672.406860,394.964813 667.502930,394.431580 662.637024,393.659485 
	C653.058044,392.139679 643.500244,390.487274 633.567383,388.752930 
	C630.516968,388.369904 627.832703,388.123627 624.919067,387.567993 
	C623.964539,386.900452 623.260925,386.285736 622.511169,386.222931 
	C612.982300,385.424377 603.446838,384.705109 593.913025,383.965637 
	C590.130432,383.640411 586.352051,383.107697 582.564453,383.032166 
	C574.128967,382.863922 565.687317,383.018890 557.251343,382.864197 
	C549.125854,382.715149 540.982300,381.831573 532.886536,382.184662 
	C519.974670,382.747803 506.958649,383.223877 494.239441,385.291656 
	C479.784943,387.641571 465.544586,391.459778 451.361938,395.209869 
	C448.347534,396.006958 445.983429,399.263580 443.123596,401.997620 
	C442.915344,403.044128 442.903198,403.480042 442.613708,404.069580 
	C441.877167,405.135651 441.417969,406.048126 440.626038,407.158203 
	C438.192383,407.509705 436.091492,407.663635 433.814026,407.569366 
	C432.469696,406.526733 431.301941,405.732269 429.872498,404.711304 
	C426.736023,403.326019 423.861237,402.167267 420.986420,401.008545 
	C418.884155,400.413208 416.781860,399.817871 413.856506,399.138885 
	C361.043671,399.066071 309.053955,399.076935 256.689392,399.078491 
	C254.543625,399.691833 252.772751,400.314392 250.633087,400.954193 
	C249.528442,401.018097 248.792587,401.064789 248.056732,401.111450 
	C244.440262,403.146729 240.823792,405.182007 236.708206,407.593384 
	C233.445435,409.968567 230.681778,411.967621 227.918121,413.966675 
	C226.233810,415.904480 224.036469,417.595764 222.964096,419.827606 
	C220.075211,425.840118 217.666122,432.083130 215.046295,439.090942 
	C215.058960,482.941040 215.091949,525.934875 215.055832,569.186523 
	C214.765625,569.921082 214.544525,570.397766 214.323425,570.874451 
	C214.070572,567.403381 213.602051,563.932617 213.598022,560.461243 
	C213.554321,522.809814 214.398560,485.135162 213.329346,447.514313 
	C212.506302,418.554504 236.965042,396.994873 263.405121,397.321014 
	C295.887146,397.721680 328.377563,397.445190 360.864349,397.458618 
	C376.358124,397.465027 391.852905,397.571716 407.345306,397.427704 
	C416.593933,397.341705 425.261749,399.312988 433.038483,404.273590 
	C436.830872,406.692657 438.986633,405.716888 440.119019,401.908691 
	C441.700165,396.591156 445.520111,394.648956 450.505829,393.185974 
	C489.292633,381.804871 528.933167,378.117828 569.134766,380.110626 
	C624.750183,382.867462 679.390137,391.914825 732.858704,407.464417 
	C746.370483,411.393860 759.760620,416.246002 772.512146,422.169220 
	C792.840637,431.611969 804.993774,448.499756 809.887329,470.067749 
	C817.131592,501.995880 814.939819,533.716248 804.385315,564.598389 
	C796.489990,587.699768 779.628357,601.802795 756.436401,608.855774 
	C740.666626,613.651428 724.379639,614.616516 708.443481,612.595032 
	C695.655029,610.972839 689.062866,615.942627 683.728210,626.138855 
	C680.896179,631.551697 676.975159,636.394714 673.297546,641.679199 
z"/>
<path fill="#B53C61" opacity="1.000000" stroke="none" 
	d="
M215.124939,568.928711 
	C215.091949,525.934875 215.058960,482.941040 215.043747,439.479614 
	C217.221359,436.698792 219.381180,434.385529 222.015808,431.563782 
	C222.015808,437.173187 222.016205,442.320587 222.015732,447.467957 
	C222.014572,460.414581 222.163925,473.363892 221.932495,486.306427 
	C221.847656,491.051361 220.793060,495.773407 220.315369,500.519440 
	C220.100052,502.658569 220.038345,504.845123 220.211868,506.985443 
	C220.731216,513.391052 221.866028,519.780823 221.915726,526.183350 
	C222.020233,539.646423 220.968597,553.145935 221.668549,566.563782 
	C221.959702,572.145325 224.815231,577.973999 227.773636,582.933411 
	C231.046310,588.419556 235.453156,593.360779 240.017502,597.881653 
	C241.908096,599.754272 245.490097,600.693298 248.302902,600.693298 
	C253.545151,600.693359 254.095047,603.199585 252.705566,607.667603 
	C251.541107,608.038330 250.766815,608.019592 249.916077,607.777710 
	C249.230026,607.377258 248.620407,607.200012 247.639221,606.937134 
	C245.527130,606.584167 243.786606,606.316833 242.046082,606.049500 
	C241.590179,605.880981 241.134293,605.712463 240.302795,605.141724 
	C239.656860,604.430359 239.386520,604.121155 239.054916,603.509644 
	C237.994049,602.506348 236.994446,601.805359 235.620789,601.103638 
	C234.751282,601.153748 234.255829,601.204529 233.760376,601.255371 
	C233.760376,601.255371 233.827606,601.222900 233.706299,601.012817 
	C233.117355,600.535828 232.649750,600.268921 232.182129,600.002014 
	C232.182129,600.002014 232.021347,599.992249 232.045532,599.679688 
	C232.069717,599.367126 232.044189,598.896851 232.029861,598.497803 
	C232.532318,592.253601 228.717117,590.689148 223.837463,589.780090 
	C223.433197,589.042358 223.205826,588.526123 222.950745,587.655396 
	C221.950439,585.868958 220.977844,584.437073 219.792328,582.762451 
	C219.063675,581.343384 218.547943,580.167114 218.217377,578.639038 
	C218.503311,574.749817 221.499771,570.198242 215.124939,568.928711 
z"/>
<path fill="#8B3F57" opacity="1.000000" stroke="none" 
	d="
M242.247650,606.297485 
	C243.786606,606.316833 245.527130,606.584167 247.857880,607.111206 
	C248.962906,607.580872 249.477722,607.790894 249.992538,608.000854 
	C250.766815,608.019592 251.541107,608.038330 252.705444,608.064941 
	C273.417236,611.756836 293.862976,609.670959 315.010834,609.198730 
	C316.502350,609.009827 317.253021,609.009583 318.368256,609.198425 
	C325.154297,609.265503 331.575714,609.143494 338.462036,609.021118 
	C343.285767,609.020386 347.644653,609.020142 352.368469,609.206848 
	C358.487732,609.270264 364.242035,609.146729 370.462769,609.023010 
	C375.625061,609.018799 380.320892,609.014771 385.483032,609.017944 
	C391.633667,609.010193 397.318024,608.995178 403.466675,608.981995 
	C408.252167,608.931641 412.573456,608.879456 416.894714,608.827393 
	C417.484772,608.901123 418.074829,608.974915 419.107300,609.125366 
	C415.812439,609.791870 412.076599,610.884705 408.337646,610.895325 
	C359.443329,611.034363 310.547424,611.185059 261.655304,610.845093 
	C255.243622,610.800537 248.850769,608.045227 242.247650,606.297485 
z"/>
<path fill="#8B3F57" opacity="1.000000" stroke="none" 
	d="
M501.858337,599.465698 
	C518.596680,598.884094 535.389343,600.985962 552.341309,604.581787 
	C548.551636,604.228516 544.469116,603.683594 540.372437,603.283875 
	C527.640930,602.041443 514.903992,600.854126 501.858337,599.465698 
z"/>
<path fill="#8B3F57" opacity="1.000000" stroke="none" 
	d="
M439.256989,600.686768 
	C449.306549,600.069641 459.356110,599.452454 469.634766,599.010925 
	C460.864410,600.104370 451.850098,600.900940 442.873505,602.004700 
	C439.664795,602.399231 436.547485,603.536865 432.996277,604.454590 
	C432.604126,604.573792 432.564209,604.530884 432.685822,604.249878 
	C433.209351,603.013184 433.611267,602.057556 434.404083,601.086670 
	C436.282288,600.943115 437.769653,600.814941 439.256989,600.686768 
z"/>
<path fill="#8B3F57" opacity="1.000000" stroke="none" 
	d="
M576.088379,609.330811 
	C586.665771,611.992432 597.487793,614.877686 608.503906,617.955261 
	C600.580872,616.090393 592.455994,614.063110 584.351013,611.959229 
	C581.652161,611.258545 579.004211,610.361633 576.088379,609.330811 
z"/>
<path fill="#8B3F57" opacity="1.000000" stroke="none" 
	d="
M627.347900,625.301025 
	C634.311035,628.090698 641.462952,631.117432 648.710938,634.368774 
	C641.716919,631.574890 634.626770,628.556519 627.347900,625.301025 
z"/>
<path fill="#8B3F57" opacity="1.000000" stroke="none" 
	d="
M218.032211,578.990845 
	C218.547943,580.167114 219.063675,581.343384 219.863342,583.091187 
	C221.091003,585.111755 222.034729,586.560852 222.978455,588.009949 
	C223.205826,588.526123 223.433197,589.042358 223.962799,590.063721 
	C224.566849,591.336548 224.868698,592.104126 225.099304,592.929504 
	C225.028076,592.987305 224.886047,593.103333 224.886047,593.103333 
	C219.271103,587.846375 216.327499,581.193176 215.052841,573.632935 
	C216.216476,575.306580 217.124344,577.148743 218.032211,578.990845 
z"/>
<path fill="#8B3F57" opacity="1.000000" stroke="none" 
	d="
M421.333679,609.048828 
	C421.990997,607.918152 422.949738,606.846191 424.257629,605.425964 
	C424.772614,605.041626 424.938507,605.005554 425.275543,604.871338 
	C425.664917,604.625244 425.862488,604.453552 426.341370,604.194702 
	C427.417694,603.855286 428.192047,603.579224 429.119171,603.555298 
	C430.369354,604.048645 431.466797,604.289734 432.564209,604.530884 
	C432.564209,604.530884 432.604126,604.573792 432.622559,604.596558 
	C428.972351,606.115356 425.303711,607.611450 421.333679,609.048828 
z"/>
<path fill="#8B3F57" opacity="1.000000" stroke="none" 
	d="
M660.938232,641.219116 
	C664.235779,642.017944 667.643127,643.059753 671.359985,644.130615 
	C670.528320,644.661682 669.097107,645.865723 668.299805,645.536133 
	C665.755920,644.484619 663.447449,642.863342 660.938232,641.219116 
z"/>
<path fill="#A33A5A" opacity="1.000000" stroke="none" 
	d="
M218.217377,578.639038 
	C217.124344,577.148743 216.216476,575.306580 215.099197,573.271729 
	C214.708755,572.600830 214.527725,572.122681 214.335068,571.259521 
	C214.544525,570.397766 214.765625,569.921082 215.055817,569.186523 
	C221.499771,570.198242 218.503311,574.749817 218.217377,578.639038 
z"/>
<path fill="#8B3F57" opacity="1.000000" stroke="none" 
	d="
M555.455200,605.298340 
	C558.775269,605.823181 562.324463,606.550720 566.151245,607.358704 
	C562.847351,606.793091 559.265869,606.147095 555.455200,605.298340 
z"/>
<path fill="#8B3F57" opacity="1.000000" stroke="none" 
	d="
M232.044189,598.896851 
	C232.044189,598.896851 232.069717,599.367126 232.036392,599.599609 
	C229.697479,597.804932 227.391907,595.777649 224.986191,593.426880 
	C224.886047,593.103333 225.028076,592.987305 225.383835,593.104675 
	C227.841125,595.113647 229.942657,597.005249 232.044189,598.896851 
z"/>
<path fill="#8B3F57" opacity="1.000000" stroke="none" 
	d="
M612.035278,619.329773 
	C614.583008,620.170410 617.356262,621.246826 620.331543,622.421021 
	C617.776001,621.534302 615.018433,620.549927 612.035278,619.329773 
z"/>
<path fill="#8B3F57" opacity="1.000000" stroke="none" 
	d="
M651.783569,636.293213 
	C653.701416,637.191223 655.730713,638.326721 657.886353,639.586792 
	C655.973450,638.651184 653.934204,637.590942 651.783569,636.293213 
z"/>
<path fill="#8B3F57" opacity="1.000000" stroke="none" 
	d="
M233.914978,601.526245 
	C234.255829,601.204529 234.751282,601.153748 235.753387,601.353027 
	C236.622589,602.263306 236.985123,602.923462 237.329514,603.604736 
	C237.311371,603.625793 237.277069,603.669434 237.277069,603.669434 
	C236.207901,603.045349 235.138733,602.421265 233.914978,601.526245 
z"/>
<path fill="#8B3F57" opacity="1.000000" stroke="none" 
	d="
M623.540771,623.590820 
	C624.084167,623.723511 624.818054,624.079163 625.683105,624.607300 
	C625.119873,624.457764 624.425598,624.135803 623.540771,623.590820 
z"/>
<path fill="#8B3F57" opacity="1.000000" stroke="none" 
	d="
M239.116180,603.811951 
	C239.386520,604.121155 239.656860,604.430359 240.001373,604.930908 
	C239.257050,604.786743 238.438538,604.451294 237.448547,603.892578 
	C237.277069,603.669434 237.311371,603.625793 237.618713,603.671265 
	C238.322769,603.748535 238.719482,603.780212 239.116180,603.811951 
z"/>
<path fill="#8B3F57" opacity="1.000000" stroke="none" 
	d="
M569.437256,608.225220 
	C569.630920,608.188660 569.828430,608.250854 570.125732,608.286743 
	C569.956421,608.304871 569.695007,608.325989 569.437256,608.225220 
z"/>
<path fill="#8B3F57" opacity="1.000000" stroke="none" 
	d="
M232.274536,600.271179 
	C232.649750,600.268921 233.117355,600.535828 233.721039,601.047119 
	C233.360397,601.041077 232.863678,600.790710 232.274536,600.271179 
z"/>
<path fill="#020101" opacity="1.000000" stroke="none" 
	d="
M309.999939,600.156372 
	C293.841248,600.174072 278.167969,599.772278 262.527344,600.313782 
	C241.630310,601.037354 223.187057,581.277100 223.649475,561.221863 
	C224.528595,523.093506 223.959793,484.931976 224.010742,446.784241 
	C224.041092,424.061798 239.742233,408.272125 262.762665,408.215973 
	C301.076141,408.122498 339.390167,408.259155 377.703979,408.309540 
	C388.697876,408.324005 399.699524,408.123322 410.683899,408.463989 
	C430.948425,409.092468 446.315399,425.219879 446.299438,445.351562 
	C446.268646,484.165649 445.738647,522.990784 446.514587,561.789368 
	C446.918030,581.961853 428.542847,601.063477 407.443939,600.485413 
	C375.150513,599.600647 342.816620,600.192139 309.999939,600.156372 
M314.757355,562.218994 
	C324.539215,556.917725 334.321045,551.616455 344.825317,546.212585 
	C366.501251,534.894409 388.177185,523.576172 410.570831,511.995453 
	C416.876251,507.083221 416.526794,501.907288 409.599091,498.081909 
	C399.980865,492.770813 390.369843,487.445496 380.691193,482.246368 
	C379.340210,481.520630 377.622070,481.478455 375.432465,480.858643 
	C365.783691,474.986298 356.258972,468.897247 346.459839,463.287567 
	C327.155548,452.236572 307.724548,441.405670 288.290070,430.584076 
	C282.365173,427.284943 276.338226,431.056030 276.429291,437.822021 
	C276.549927,446.787598 276.710236,455.752655 276.533417,465.661682 
	C276.571075,470.899170 276.608734,476.136627 276.447327,482.240356 
	C276.460175,487.260712 276.473053,492.281067 276.290833,498.097290 
	C276.349670,500.332336 276.408539,502.567413 276.304993,505.751587 
	C276.396851,513.542480 276.488708,521.333374 276.455841,530.036926 
	C276.330750,542.975830 276.126434,555.914612 276.112732,568.853638 
	C276.105469,575.719116 281.951630,579.709717 287.899933,576.669373 
	C296.733917,572.154175 305.322205,567.158264 314.757355,562.218994 
z"/>
<path fill="#020101" opacity="1.000000" stroke="none" 
	d="
M475.073975,438.165405 
	C475.504608,438.159332 475.935272,438.153259 477.112915,438.105316 
	C483.936005,437.450623 490.012054,436.837799 496.088104,436.225037 
	C497.459961,436.200317 498.831787,436.175598 501.062225,436.142517 
	C506.980499,435.818970 512.040222,435.503815 517.099915,435.188660 
	C518.458374,435.217010 519.816772,435.245331 521.972412,435.280640 
	C523.853088,435.215576 524.936462,435.143524 526.019897,435.071472 
	C526.770691,435.107727 527.521545,435.144012 529.067749,435.166260 
	C532.227417,435.139923 534.591736,435.127625 537.331604,435.284821 
	C557.287781,436.982056 576.959045,437.779022 596.429932,440.192291 
	C634.906128,444.961121 672.499756,453.653687 708.450256,468.594940 
	C714.799255,471.233643 721.131104,473.913605 727.959412,476.779633 
	C724.360291,469.994659 724.846863,465.621063 729.093506,463.033997 
	C732.490601,460.964478 737.588257,462.133667 739.505310,465.851044 
	C740.337891,467.465515 740.946106,470.298187 740.107544,471.457825 
	C737.908447,474.499207 734.857727,476.924805 732.049927,479.690857 
	C732.228821,479.817139 732.943604,480.665039 733.815430,480.881836 
	C739.744690,482.356415 740.628906,486.423309 740.408936,491.846924 
	C740.099548,499.476227 740.564270,507.136902 740.604004,515.247192 
	C740.569275,518.805115 740.628418,521.900024 740.545288,525.422363 
	C739.983948,534.041077 739.983948,534.041016 731.707336,534.084595 
	C731.040771,534.088074 730.366943,534.031616 729.708862,534.108826 
	C726.273560,534.511780 724.873108,533.078857 725.021240,529.570923 
	C725.260010,523.914062 725.355347,518.240234 725.179871,512.583923 
	C725.131226,511.018494 724.323486,508.675903 723.156433,508.083191 
	C717.845886,505.386078 712.248169,503.261688 706.825256,500.775299 
	C704.117432,499.533752 701.603271,497.875977 698.927429,496.556824 
	C696.571838,495.395569 694.143494,493.719421 691.690796,493.616425 
	C689.519836,493.525208 685.795471,494.845642 685.353638,496.320709 
	C684.330322,499.736847 687.795044,500.228394 690.395752,500.934113 
	C696.012390,502.458282 701.840210,503.528717 707.146912,505.800385 
	C717.171204,510.091431 718.703125,523.519714 710.335815,530.504211 
	C701.450500,537.921143 681.180664,537.527771 673.071289,529.346619 
	C670.583557,526.836914 669.340515,523.093567 666.895447,518.807129 
	C674.346741,518.630310 680.268677,515.492737 684.734497,522.815735 
	C687.078979,526.660095 692.055603,526.695801 696.170166,525.460938 
	C697.817017,524.966736 699.719421,522.745117 699.981262,521.071472 
	C700.173584,519.841736 698.144409,517.788452 696.635925,516.891785 
	C694.838440,515.823303 692.527893,515.636414 690.460266,515.000366 
	C686.019226,513.634216 681.466858,512.526184 677.189819,510.757080 
	C671.832520,508.541260 669.032227,504.036041 669.973877,498.362640 
	C670.769348,493.570312 668.535828,492.448547 664.756165,491.276459 
	C635.651917,482.251160 605.741760,477.597260 575.544922,474.339325 
	C536.178284,470.092010 497.034760,471.677765 458.062714,478.444702 
	C457.617920,477.538574 457.173126,476.632446 456.733215,474.902924 
	C456.674927,463.727753 456.611786,453.375977 456.548645,443.024200 
	C456.675598,442.591034 456.802582,442.157867 457.361420,441.409180 
	C458.896698,440.804108 460.000092,440.514526 461.103485,440.224945 
	C461.839264,440.186707 462.575043,440.148468 463.914429,440.030640 
	C464.665710,439.873352 464.813446,439.795654 464.961212,439.717957 
	C467.051270,439.441498 469.141327,439.165070 471.921448,438.836334 
	C473.432343,438.577850 474.253174,438.371613 475.073975,438.165405 
z"/>
<path fill="#020101" opacity="1.000000" stroke="none" 
	d="
M474.970215,518.916504 
	C475.733612,518.880066 476.496979,518.843628 478.056702,518.761475 
	C479.680756,518.666992 480.510864,518.644043 481.335785,518.565918 
	C533.370178,513.639648 584.587036,518.202759 634.926636,532.160645 
	C647.715820,535.706787 660.271057,540.096619 673.193726,544.341553 
	C678.651794,546.773682 683.931580,548.789673 689.031067,551.189026 
	C699.354004,556.045959 709.579163,561.110657 719.841553,566.465698 
	C718.200012,570.165466 716.561584,573.489136 714.612427,576.963867 
	C712.215881,579.852417 710.063599,582.542358 708.059448,585.338440 
	C704.869751,589.788513 701.778809,594.309326 698.531128,598.496094 
	C691.414429,590.874939 682.158203,587.521179 672.877258,583.528076 
	C670.857178,582.565674 669.072144,581.872925 667.061462,580.945435 
	C665.008423,579.983337 663.181030,579.255981 661.122925,578.391296 
	C660.554565,578.315979 660.216858,578.377930 659.679688,578.177490 
	C658.660217,577.653564 657.840271,577.392029 656.782104,576.941284 
	C655.958862,576.697205 655.373901,576.642212 654.543945,576.301025 
	C652.876404,575.528442 651.453735,575.042053 649.926941,574.520203 
	C649.822754,574.484741 649.748108,574.691833 649.519897,574.401123 
	C646.536682,573.233643 643.781616,572.356873 640.728149,571.280640 
	C639.959412,571.020081 639.489075,570.959106 638.761841,570.648438 
	C634.343567,569.234497 630.182068,568.070251 625.717896,566.702454 
	C623.266602,566.001038 621.117981,565.503296 618.777466,564.816467 
	C618.069580,564.566895 617.553589,564.506348 616.715088,564.286987 
	C615.918335,564.087219 615.444214,564.046326 614.773315,563.823059 
	C614.059814,563.588074 613.543030,563.535339 612.709778,563.320435 
	C611.925232,563.112244 611.457092,563.066345 610.797241,562.816467 
	C610.066895,562.537903 609.528320,562.463257 608.638550,562.240356 
	C607.532471,562.042542 606.777527,561.993042 605.746460,561.722412 
	C604.319580,561.354492 603.168823,561.207581 601.672363,560.877075 
	C581.204651,558.144104 561.082581,555.594666 540.702881,552.902466 
	C539.295776,552.815552 538.146118,552.871521 536.592529,552.813538 
	C528.463928,552.767090 520.739258,552.834595 512.724976,552.764771 
	C510.977478,552.780273 509.519623,552.933044 507.613892,552.998535 
	C504.459534,553.120972 501.753052,553.330688 498.691315,553.444824 
	C497.870514,553.471130 497.404999,553.592957 496.615601,553.647644 
	C495.865356,553.670288 495.439026,553.760132 494.768127,553.741943 
	C494.024200,553.768433 493.524872,553.903015 492.587219,553.975952 
	C490.108582,554.153076 488.068207,554.391724 486.027832,554.630371 
	C476.554718,555.599854 467.081604,556.569336 456.958862,557.605225 
	C456.958862,545.676697 456.958862,534.142700 457.376709,522.093018 
	C463.519806,520.690369 469.244995,519.803406 474.970215,518.916504 
z"/>
<path fill="#AE4362" opacity="1.000000" stroke="none" 
	d="
M536.956055,435.115326 
	C534.591736,435.127625 532.227417,435.139923 529.428955,435.054199 
	C529.039001,431.299805 528.850342,427.621246 529.196289,423.993622 
	C529.508606,420.717896 529.928711,417.277802 534.424561,416.628235 
	C535.360046,416.493103 536.603333,414.940155 536.800293,413.873566 
	C537.542419,409.853943 540.128967,408.809479 543.679993,409.003601 
	C548.214172,409.251343 552.367676,409.106506 553.775330,403.411743 
	C554.027405,402.391724 556.054871,401.799194 557.278076,401.033936 
	C558.358826,400.357849 560.221313,399.901154 560.433228,399.029999 
	C562.092346,392.209290 568.283203,392.554871 573.045593,391.116364 
	C578.243774,389.546295 583.773560,389.105927 589.063965,387.791290 
	C590.779419,387.364990 592.195740,385.734955 593.830933,384.310577 
	C603.446838,384.705109 612.982300,385.424377 622.511169,386.222931 
	C623.260925,386.285736 623.964539,386.900452 624.953796,387.949707 
	C628.017822,392.413757 630.939270,391.928741 633.933655,388.889709 
	C643.500244,390.487274 653.058044,392.139679 662.637024,393.659485 
	C667.502930,394.431580 672.406860,394.964813 677.309448,395.855713 
	C675.049255,396.925079 673.279175,399.818665 670.191589,397.671692 
	C669.862305,397.442749 667.760315,398.924927 667.256531,399.982849 
	C666.509033,401.552521 666.455078,403.452393 666.165466,404.911774 
	C669.787903,406.150970 673.282776,407.088837 676.553589,408.533875 
	C680.216675,410.152252 684.068298,411.745300 687.133179,414.221588 
	C691.686584,417.900604 695.658997,422.308441 699.784058,426.499176 
	C700.537781,427.264893 700.573914,428.939148 701.391907,429.408051 
	C709.686401,434.163025 712.535767,442.713104 715.640747,450.727142 
	C717.353638,455.148224 720.597656,456.613251 723.522278,455.424500 
	C729.290527,453.079926 731.267395,456.886536 733.589294,460.043030 
	C728.785522,459.586823 725.573181,460.786346 723.565552,465.225800 
	C720.866699,471.193817 720.734131,470.800842 714.707825,468.204926 
	C705.915833,464.417603 697.073547,460.643982 687.991516,457.659393 
	C676.940674,454.027893 665.598938,451.288788 654.426392,448.015625 
	C651.265442,447.089539 648.351013,445.051971 645.160828,444.541718 
	C630.486389,442.194611 615.744263,440.273590 601.049622,438.046997 
	C597.147278,437.455658 593.354797,435.724884 589.464050,435.543365 
	C573.892029,434.816833 558.302185,434.450745 542.715942,434.077972 
	C540.805359,434.032288 538.876465,434.750885 536.956055,435.115326 
z"/>
<path fill="#AE4362" opacity="1.000000" stroke="none" 
	d="
M614.970032,564.005371 
	C615.444214,564.046326 615.918335,564.087219 616.804199,564.476135 
	C617.800354,564.884583 618.384827,564.945007 618.969360,565.005493 
	C621.117981,565.503296 623.266602,566.001038 625.860229,567.024780 
	C630.164734,569.176208 634.016479,570.821289 637.912354,572.354309 
	C638.066223,572.414978 638.640381,571.407776 639.018677,570.898132 
	C639.489075,570.959106 639.959412,571.020081 640.862061,571.584961 
	C644.112305,572.956421 646.930237,573.824097 649.748108,574.691772 
	C649.748108,574.691833 649.822754,574.484741 650.083618,574.898376 
	C651.825989,575.737061 653.307434,576.162109 654.788879,576.587158 
	C655.373901,576.642212 655.958862,576.697205 656.963989,577.228577 
	C658.215759,577.949951 659.047424,578.194885 659.879150,578.439880 
	C660.216858,578.377930 660.554565,578.315979 660.948120,578.611938 
	C661.589966,582.473572 663.729858,583.226318 667.287109,581.180176 
	C669.072144,581.872925 670.857178,582.565674 672.957825,583.822632 
	C673.879578,585.326294 674.485657,586.265747 676.113037,588.788147 
	C672.564575,588.788147 670.094910,589.208862 667.837097,588.696167 
	C663.753113,587.768799 659.795898,587.871704 657.544983,591.516357 
	C655.046631,595.561584 652.170105,595.882080 648.363647,594.272339 
	C645.098083,592.891357 642.720825,592.993347 640.418884,596.529907 
	C637.077393,601.663635 635.143250,601.509888 631.671204,596.314880 
	C629.922546,593.698425 628.114746,593.006104 625.047668,593.374207 
	C621.478882,593.802551 617.804749,593.264221 614.182251,593.362854 
	C611.430542,593.437744 608.688049,593.852661 605.941467,594.116272 
	C595.923767,592.340454 585.906006,590.564697 575.364380,588.561401 
	C574.232117,588.218933 573.623901,588.103882 573.015625,587.988831 
	C571.265015,587.743347 569.514343,587.497864 567.217285,587.033936 
	C566.118958,586.865967 565.567078,586.916504 565.015198,586.967041 
	C563.954224,586.915466 562.893311,586.863892 561.304077,586.476929 
	C556.258911,585.281555 551.747437,584.388855 547.213196,583.632935 
	C546.901428,583.580933 546.419495,584.549744 546.016724,585.043884 
	C544.301880,584.990967 542.586975,584.938049 540.443420,584.847290 
	C532.301392,582.640442 525.694580,576.870972 517.002686,577.842163 
	C513.895691,578.189270 511.907318,577.270752 510.833344,573.684448 
	C509.118195,567.956848 505.767731,563.581299 499.402466,561.551514 
	C495.977875,560.459412 493.005127,558.201721 489.056244,558.341553 
	C488.135040,558.374084 487.140686,556.339233 486.103943,554.942993 
	C488.068207,554.391724 490.108582,554.153076 492.738464,554.104858 
	C493.889557,554.146851 494.451141,553.998413 495.012695,553.849976 
	C495.439026,553.760132 495.865356,553.670288 496.627258,553.964722 
	C497.364899,555.413391 497.767029,556.477844 498.169159,557.542297 
	C498.531403,557.415161 498.893646,557.287964 499.255890,557.160828 
	C499.186127,555.953979 499.116364,554.747192 499.046570,553.540405 
	C501.753052,553.330688 504.459534,553.120972 507.897156,553.176819 
	C510.090393,553.262268 511.552490,553.082214 513.014587,552.902100 
	C520.739258,552.834595 528.463928,552.767090 536.839722,553.004517 
	C538.647400,553.221436 539.803894,553.133362 540.960449,553.045288 
	C561.082581,555.594666 581.204651,558.144104 601.805908,561.155640 
	C603.530945,561.726318 604.776733,561.834900 606.022583,561.943481 
	C606.777527,561.993042 607.532471,562.042542 608.671997,562.486206 
	C609.431702,563.282227 609.806702,563.684143 610.181702,564.086060 
	C610.450806,563.730835 610.719910,563.375610 610.988953,563.020386 
	C611.457092,563.066345 611.925232,563.112244 612.804565,563.505310 
	C613.800476,563.903381 614.385254,563.954407 614.970032,564.005371 
z"/>
<path fill="#AE4362" opacity="1.000000" stroke="none" 
	d="
M494.970032,515.022827 
	C491.445862,511.526184 489.436401,506.618927 484.280090,504.548157 
	C482.762512,503.938721 481.452209,501.177826 481.245575,499.272888 
	C480.786987,495.045959 480.856232,490.720306 481.158142,486.466705 
	C481.365295,483.548126 482.326080,480.683044 483.425079,477.389832 
	C489.801270,476.331146 495.687988,475.350342 501.606445,475.089172 
	C514.544678,474.518127 527.521973,473.678711 540.440002,474.146667 
	C551.965454,474.564178 563.432617,476.591522 574.796753,478.233337 
	C573.135010,480.373383 570.466431,482.090332 570.299255,484.023682 
	C569.920044,488.406555 570.798706,492.894135 571.114929,497.342804 
	C571.288513,499.786682 571.914978,502.369537 571.373108,504.661743 
	C569.594971,512.182190 569.466919,512.223145 576.853455,514.207275 
	C579.433838,514.900391 582.343994,515.227905 581.507141,519.047485 
	C578.400330,518.343018 575.715027,517.208130 572.966980,517.027100 
	C556.759460,515.960022 540.546631,514.825073 524.316589,514.303284 
	C514.552246,513.989380 504.753387,514.746826 494.970032,515.022827 
z"/>
<path fill="#8B3F57" opacity="1.000000" stroke="none" 
	d="
M574.925476,477.908447 
	C563.432617,476.591522 551.965454,474.564178 540.440002,474.146667 
	C527.521973,473.678711 514.544678,474.518127 501.606445,475.089172 
	C495.687988,475.350342 489.801270,476.331146 483.433594,476.991699 
	C476.894073,477.951233 470.838593,479.052032 464.738312,479.774841 
	C462.714844,480.014587 460.576202,479.282318 458.276489,478.719574 
	C497.034760,471.677765 536.178284,470.092010 575.544922,474.339325 
	C605.741760,477.597260 635.651917,482.251160 664.756165,491.276459 
	C668.535828,492.448547 670.769348,493.570312 669.973877,498.362640 
	C669.032227,504.036041 671.832520,508.541260 677.189819,510.757080 
	C681.466858,512.526184 686.019226,513.634216 690.460266,515.000366 
	C692.527893,515.636414 694.838440,515.823303 696.635925,516.891785 
	C698.144409,517.788452 700.173584,519.841736 699.981262,521.071472 
	C699.719421,522.745117 697.817017,524.966736 696.170166,525.460938 
	C692.055603,526.695801 687.078979,526.660095 684.734497,522.815735 
	C680.268677,515.492737 674.346741,518.630310 666.895447,518.807129 
	C669.340515,523.093567 670.583557,526.836914 673.071289,529.346619 
	C681.180664,537.527771 701.450500,537.921143 710.335815,530.504211 
	C718.703125,523.519714 717.171204,510.091431 707.146912,505.800385 
	C701.840210,503.528717 696.012390,502.458282 690.395752,500.934113 
	C687.795044,500.228394 684.330322,499.736847 685.353638,496.320709 
	C685.795471,494.845642 689.519836,493.525208 691.690796,493.616425 
	C694.143494,493.719421 696.571838,495.395569 698.927429,496.556824 
	C701.603271,497.875977 704.117432,499.533752 706.825256,500.775299 
	C712.248169,503.261688 717.845886,505.386078 723.156433,508.083191 
	C724.323486,508.675903 725.131226,511.018494 725.179871,512.583923 
	C725.355347,518.240234 725.260010,523.914062 725.021240,529.570923 
	C724.873108,533.078857 726.273560,534.511780 729.708862,534.108826 
	C730.366943,534.031616 731.040771,534.088074 731.707336,534.084595 
	C739.983948,534.041016 739.983948,534.041077 740.786133,525.658020 
	C741.428284,527.639832 741.687256,529.813293 741.781006,532.257446 
	C741.408142,533.343994 741.200378,534.159851 740.823242,535.129822 
	C740.435242,535.497437 740.241394,535.731506 740.054077,536.239685 
	C740.023865,536.662048 740.011963,536.830994 739.598022,536.961670 
	C736.740479,536.780945 734.240845,536.274719 731.837585,536.565491 
	C725.074097,537.383789 723.055969,535.792358 722.975525,528.898376 
	C722.929138,524.921997 723.165649,520.930786 722.871826,516.976196 
	C722.791077,515.889526 721.258789,514.910645 720.392517,513.882324 
	C719.397644,514.860413 718.246399,515.731567 717.473755,516.861572 
	C717.085388,517.429504 717.415527,518.469604 717.368652,519.293274 
	C716.985657,526.021667 715.547180,531.797852 708.135376,534.653564 
	C699.188843,538.100647 690.042480,537.711853 680.829041,537.452759 
	C680.095764,537.432190 679.388245,536.700134 678.658325,536.318604 
	C675.163757,534.492065 671.665527,532.672424 668.070251,530.573486 
	C667.677063,529.783630 667.382324,529.270508 667.101074,528.401428 
	C666.844482,526.677734 666.574463,525.310120 666.202393,523.628784 
	C666.940369,520.237793 667.780334,517.160522 668.513245,514.475586 
	C671.812622,514.475586 674.396606,514.475586 677.449463,514.475586 
	C676.790649,513.407227 676.611755,512.924744 676.274231,512.615723 
	C675.790344,512.172668 675.238953,511.675873 674.632935,511.513519 
	C668.482971,509.865692 666.198608,505.969055 666.835327,499.651337 
	C667.003418,497.983337 665.418701,495.040863 663.958435,494.491058 
	C656.468140,491.670959 648.841003,489.113922 641.097229,487.095825 
	C633.158203,485.026825 625.093994,483.178070 616.968689,482.141174 
	C603.001709,480.358795 588.944702,479.281616 574.925476,477.908447 
z"/>
<path fill="#B53C61" opacity="1.000000" stroke="none" 
	d="
M247.957825,401.443176 
	C248.792587,401.064789 249.528442,401.018097 250.907150,401.163818 
	C254.307755,402.835632 256.823090,403.725769 257.064240,399.087769 
	C309.053955,399.076935 361.043671,399.066071 413.498291,399.078857 
	C414.795074,400.512451 415.626953,401.922424 417.052551,404.338715 
	C414.856537,404.934906 413.006714,405.846222 411.143280,405.875031 
	C400.862457,406.034088 390.578308,405.989746 380.295319,405.992645 
	C359.467285,405.998505 338.638519,406.095673 317.811554,405.945343 
	C306.382935,405.862823 294.951599,404.971039 283.532135,405.144592 
	C272.413788,405.313568 261.309052,406.376221 250.198242,407.045502 
	C249.081070,407.112823 247.963501,407.173737 246.019730,407.284821 
	C246.759659,405.068176 247.309296,403.421539 247.957825,401.443176 
z"/>
<path fill="#B53C61" opacity="1.000000" stroke="none" 
	d="
M416.917725,608.432617 
	C412.573456,608.879456 408.252167,608.931641 403.263855,608.659058 
	C396.662659,606.633057 390.746643,605.403381 385.016754,609.010742 
	C380.320892,609.014771 375.625061,609.018799 370.102661,608.822144 
	C363.518585,608.754211 357.761047,608.887024 352.003540,609.019836 
	C347.644653,609.020142 343.285767,609.020386 338.101593,608.819885 
	C330.852081,608.749207 324.427887,608.879333 318.003662,609.009399 
	C317.253021,609.009583 316.502350,609.009827 315.376404,609.010010 
	C312.895111,608.677429 310.795410,608.106018 308.682159,608.050598 
	C293.209991,607.644592 277.733612,607.391235 262.263275,606.932373 
	C260.683044,606.885559 259.133575,605.801880 257.569855,605.199341 
	C259.168274,604.464905 260.764771,603.093750 262.365356,603.088989 
	C303.861816,602.965088 345.358643,602.981445 386.855438,602.978516 
	C395.188110,602.977966 403.521027,603.041199 411.853302,602.987793 
	C415.351807,602.965393 417.252899,604.330322 416.917725,608.432617 
z"/>
<path fill="#8B3F57" opacity="1.000000" stroke="none" 
	d="
M494.527740,515.026733 
	C504.753387,514.746826 514.552246,513.989380 524.316589,514.303284 
	C540.546631,514.825073 556.759460,515.960022 572.966980,517.027100 
	C575.715027,517.208130 578.400330,518.343018 581.941162,519.082764 
	C589.368652,519.870789 596.068604,520.130676 602.549622,521.458557 
	C615.061951,524.022095 627.450806,527.188477 640.147217,530.333984 
	C647.798340,533.064270 655.210083,535.516663 662.580688,538.087158 
	C666.398438,539.418640 670.868774,539.714844 672.933838,544.098816 
	C660.271057,540.096619 647.715820,535.706787 634.926636,532.160645 
	C584.587036,518.202759 533.370178,513.639648 481.335785,518.565918 
	C480.510864,518.644043 479.680756,518.666992 478.420227,518.636658 
	C483.353424,517.381958 488.719421,516.206299 494.527740,515.026733 
z"/>
<path fill="#B53C61" opacity="1.000000" stroke="none" 
	d="
M442.891052,403.915955 
	C442.903198,403.480042 442.915344,403.044128 442.944397,402.280518 
	C446.726013,403.168854 446.280426,405.844696 444.763489,408.309540 
	C441.779846,413.157684 441.351501,417.447662 445.861816,421.727905 
	C446.986938,422.795654 447.058289,424.973785 446.884674,427.011108 
	C441.291718,421.577423 435.698761,416.143707 430.053284,410.354950 
	C430.000732,409.999878 430.013519,409.990997 430.245483,410.121002 
	C431.648529,409.439850 432.819550,408.628693 433.990601,407.817535 
	C436.091492,407.663635 438.192383,407.509705 440.926025,407.030518 
	C442.002838,405.775482 442.446930,404.845734 442.891052,403.915955 
z"/>
<path fill="#B53C61" opacity="1.000000" stroke="none" 
	d="
M428.966400,603.303223 
	C428.192047,603.579224 427.417694,603.855286 426.171112,604.291382 
	C425.481689,604.602356 425.283539,604.775085 425.104370,604.969543 
	C424.938507,605.005554 424.772614,605.041626 424.358002,605.130127 
	C422.248413,604.576965 420.387543,603.971436 418.526703,603.365967 
	C418.564911,602.781799 418.603119,602.197632 418.641327,601.613464 
	C426.570831,600.749695 432.524384,593.116394 441.820496,595.916016 
	C441.316315,597.394897 440.479248,598.751709 439.449585,600.397644 
	C437.769653,600.814941 436.282288,600.943115 434.125488,600.890503 
	C431.959473,601.574158 430.462952,602.438721 428.966400,603.303223 
z"/>
<path fill="#B53C61" opacity="1.000000" stroke="none" 
	d="
M227.856064,414.317627 
	C230.681778,411.967621 233.445435,409.968567 236.544678,407.885315 
	C238.084625,408.521973 239.288986,409.242828 240.654358,410.060059 
	C235.235962,414.802002 230.312134,419.111145 225.388321,423.420258 
	C224.935913,423.113434 224.483521,422.806641 224.031128,422.499817 
	C225.285416,419.889404 226.539703,417.278992 227.856064,414.317627 
z"/>
<path fill="#B53C61" opacity="1.000000" stroke="none" 
	d="
M420.976471,401.396332 
	C423.861237,402.167267 426.736023,403.326019 429.841309,405.133514 
	C430.052338,407.185181 430.032928,408.588104 430.013519,409.990997 
	C430.013519,409.990997 430.000732,409.999878 429.993347,410.006226 
	C428.713593,409.711334 427.451233,409.207794 426.167175,409.144714 
	C421.217621,408.901642 419.576935,406.444336 420.976471,401.396332 
z"/>
<path fill="#8B3F57" opacity="1.000000" stroke="none" 
	d="
M456.271729,443.255798 
	C456.611786,453.375977 456.674927,463.727753 456.621155,474.532013 
	C456.178223,474.617462 455.564423,474.247498 455.568176,473.883850 
	C455.672119,463.751312 455.838684,453.619415 456.271729,443.255798 
z"/>
<path fill="#8B3F57" opacity="1.000000" stroke="none" 
	d="
M495.744324,435.983765 
	C490.012054,436.837799 483.936005,437.450623 477.415771,437.985779 
	C482.779510,434.335205 489.038513,434.600677 495.744324,435.983765 
z"/>
<path fill="#8B3F57" opacity="1.000000" stroke="none" 
	d="
M474.622070,518.731140 
	C469.244995,519.803406 463.519806,520.690369 457.396912,521.600952 
	C462.300018,518.031738 468.156250,517.555298 474.622070,518.731140 
z"/>
<path fill="#8B3F57" opacity="1.000000" stroke="none" 
	d="
M516.745483,434.957092 
	C512.040222,435.503815 506.980499,435.818970 501.462891,436.042755 
	C505.878021,432.333984 511.183838,434.148102 516.745483,434.957092 
z"/>
<path fill="#B53C61" opacity="1.000000" stroke="none" 
	d="
M443.617401,585.665405 
	C444.121918,583.896179 444.732361,582.422363 445.342804,580.948608 
	C445.780457,580.947388 446.218079,580.946167 446.655731,580.944946 
	C446.775085,582.455322 447.097748,583.998962 446.860229,585.450928 
	C446.805908,585.783020 444.820160,585.799194 443.617401,585.665405 
z"/>
<path fill="#B53C61" opacity="1.000000" stroke="none" 
	d="
M438.636902,591.712585 
	C439.252014,590.780212 439.946045,590.115845 440.640045,589.451538 
	C441.014893,589.959045 441.389740,590.466553 441.764587,590.974121 
	C440.748322,591.309631 439.732086,591.645142 438.636902,591.712585 
z"/>
<path fill="#8B3F57" opacity="1.000000" stroke="none" 
	d="
M460.847473,440.017151 
	C460.000092,440.514526 458.896698,440.804108 457.448181,441.081299 
	C458.265869,440.649078 459.428680,440.229218 460.847473,440.017151 
z"/>
<path fill="#8B3F57" opacity="1.000000" stroke="none" 
	d="
M474.863403,437.982788 
	C474.253174,438.371613 473.432343,438.577850 472.299591,438.701630 
	C472.876068,438.346191 473.764435,438.073151 474.863403,437.982788 
z"/>
<path fill="#B53C61" opacity="1.000000" stroke="none" 
	d="
M242.023010,408.304199 
	C242.205658,407.957733 242.497406,407.745178 242.805176,407.559113 
	C242.820450,407.549866 242.974915,407.770874 243.064575,407.884644 
	C242.754837,408.070923 242.445099,408.257202 242.023010,408.304199 
z"/>
<path fill="#AE4362" opacity="1.000000" stroke="none" 
	d="
M475.967957,558.258667 
	C475.932800,558.257202 476.003113,558.260193 475.967957,558.258667 
z"/>
<path fill="#8B3F57" opacity="1.000000" stroke="none" 
	d="
M525.761536,434.882019 
	C524.936462,435.143524 523.853088,435.215576 522.371521,435.187988 
	C523.149963,434.956421 524.326599,434.824493 525.761536,434.882019 
z"/>
<path fill="#8B3F57" opacity="1.000000" stroke="none" 
	d="
M464.839050,439.665466 
	C464.813446,439.795654 464.665710,439.873352 464.269135,439.924805 
	C464.201080,439.674469 464.433319,439.579254 464.839050,439.665466 
z"/>
<path fill="#B53C61" opacity="1.000000" stroke="none" 
	d="
M448.506775,429.494263 
	C448.514435,429.515717 448.499084,429.472809 448.506775,429.494263 
z"/>
<path fill="#AA3D5E" opacity="1.000000" stroke="none" 
	d="
M740.992554,534.975708 
	C741.200378,534.159851 741.408142,533.343994 742.142822,532.296936 
	C743.440308,532.349609 744.189941,532.743896 744.985657,532.894043 
	C746.535400,533.186340 748.110901,533.341797 749.675781,533.553955 
	C749.295044,531.897034 748.983276,530.220154 748.512878,528.589111 
	C748.103821,527.171082 747.515564,525.804749 746.669373,523.495667 
	C748.856689,524.265686 749.908264,524.635864 751.017212,525.359497 
	C752.117920,527.349304 752.821411,529.439209 754.274780,530.528442 
	C757.395081,532.866760 761.136658,534.393127 764.183472,536.807617 
	C767.107910,539.125122 769.106201,539.098145 771.428467,535.838501 
	C773.579102,535.826904 775.302368,535.879211 777.305481,536.133545 
	C778.713623,536.528320 779.841919,536.721130 780.971863,537.330078 
	C781.262939,541.644226 779.298584,543.113098 775.575073,543.020142 
	C772.129395,542.934265 768.116882,542.008667 765.354309,543.416199 
	C760.788757,545.742432 757.239136,545.946350 752.958862,543.148193 
	C750.277527,541.395264 748.363037,542.181885 748.432190,546.120972 
	C748.471802,548.374146 747.404907,550.691895 746.621338,552.904541 
	C745.130859,557.112915 743.294373,560.979248 738.455322,562.556519 
	C737.574280,562.843750 737.614563,565.343689 736.755676,566.456360 
	C735.463013,568.130920 733.969910,570.344116 732.175537,570.797119 
	C728.127441,571.818970 727.733948,573.223022 729.831116,576.635986 
	C732.121338,580.363037 730.924561,584.465454 726.767090,586.146179 
	C722.674683,587.800659 718.586853,588.798706 718.033142,594.208496 
	C717.959106,594.932068 716.349243,595.894165 715.336975,596.062378 
	C708.097900,597.265503 705.401428,604.527405 699.659729,607.708862 
	C699.164124,607.983459 699.207397,609.230652 699.000305,610.026123 
	C695.029175,609.555969 692.146057,611.072632 689.857727,614.399536 
	C687.645996,617.615051 684.995850,620.529114 682.281128,623.782349 
	C660.534668,611.229675 637.368286,602.680298 613.234131,596.546021 
	C610.981201,595.973389 608.782288,595.188354 606.249878,594.309082 
	C608.688049,593.852661 611.430542,593.437744 614.182251,593.362854 
	C617.804749,593.264221 621.478882,593.802551 625.047668,593.374207 
	C628.114746,593.006104 629.922546,593.698425 631.671204,596.314880 
	C635.143250,601.509888 637.077393,601.663635 640.418884,596.529907 
	C642.720825,592.993347 645.098083,592.891357 648.363647,594.272339 
	C652.170105,595.882080 655.046631,595.561584 657.544983,591.516357 
	C659.795898,587.871704 663.753113,587.768799 667.837097,588.696167 
	C670.094910,589.208862 672.564575,588.788147 676.113037,588.788147 
	C674.485657,586.265747 673.879578,585.326294 673.192871,584.092285 
	C682.158203,587.521179 691.414429,590.874939 698.846680,598.628357 
	C700.776672,598.449707 702.810486,598.252136 703.677185,597.142761 
	C706.486816,593.546570 709.093140,589.742920 711.337830,585.770569 
	C712.906006,582.995544 713.753662,579.813232 714.923157,576.812805 
	C716.561584,573.489136 718.200012,570.165466 720.042603,566.167603 
	C720.496826,561.896179 720.824219,558.302124 720.975342,554.700745 
	C721.130066,551.012512 721.489014,547.158325 716.166931,546.512146 
	C715.706299,546.456238 714.854614,544.151855 715.227356,543.612366 
	C717.268494,540.658264 722.664917,541.265686 724.087830,544.547180 
	C725.174316,547.052917 727.562927,547.861206 728.284180,545.518921 
	C729.802551,540.587952 732.834778,539.151184 737.410767,538.989075 
	C738.296204,538.957703 739.138062,537.694824 740.000000,537.000000 
	C740.011963,536.830994 740.023865,536.662048 740.213623,536.206177 
	C740.591858,535.604736 740.792236,535.290222 740.992554,534.975708 
z"/>
<path fill="#A33A5A" opacity="1.000000" stroke="none" 
	d="
M546.399292,585.183960 
	C546.419495,584.549744 546.901428,583.580933 547.213196,583.632935 
	C551.747437,584.388855 556.258911,585.281555 560.907166,586.442505 
	C556.286255,586.270325 551.534058,585.797241 546.399292,585.183960 
z"/>
<path fill="#A33A5A" opacity="1.000000" stroke="none" 
	d="
M565.191528,587.101440 
	C565.567078,586.916504 566.118958,586.865967 566.847534,586.959106 
	C566.472046,587.147156 565.919983,587.191528 565.191528,587.101440 
z"/>
<path fill="#A33A5A" opacity="1.000000" stroke="none" 
	d="
M573.235779,588.155396 
	C573.623901,588.103882 574.232117,588.218933 574.936401,588.524048 
	C574.506897,588.583374 573.981445,588.452637 573.235779,588.155396 
z"/>
<path fill="#A7385B" opacity="1.000000" stroke="none" 
	d="
M699.362915,610.221680 
	C699.207397,609.230652 699.164124,607.983459 699.659729,607.708862 
	C705.401428,604.527405 708.097900,597.265503 715.336975,596.062378 
	C716.349243,595.894165 717.959106,594.932068 718.033142,594.208496 
	C718.586853,588.798706 722.674683,587.800659 726.767090,586.146179 
	C730.924561,584.465454 732.121338,580.363037 729.831116,576.635986 
	C727.733948,573.223022 728.127441,571.818970 732.175537,570.797119 
	C733.969910,570.344116 735.463013,568.130920 736.755676,566.456360 
	C737.614563,565.343689 737.574280,562.843750 738.455322,562.556519 
	C743.294373,560.979248 745.130859,557.112915 746.621338,552.904541 
	C747.404907,550.691895 748.471802,548.374146 748.432190,546.120972 
	C748.363037,542.181885 750.277527,541.395264 752.958862,543.148193 
	C757.239136,545.946350 760.788757,545.742432 765.354309,543.416199 
	C768.116882,542.008667 772.129395,542.934265 775.575073,543.020142 
	C779.298584,543.113098 781.262939,541.644226 780.991028,537.077148 
	C781.019409,536.068237 781.030212,535.728333 781.349182,535.267700 
	C782.094482,535.101685 782.531677,535.056396 783.258850,535.179321 
	C790.278931,535.630737 794.472961,531.708435 797.685608,526.493164 
	C798.125671,525.778687 797.089111,524.154663 796.789856,522.602661 
	C797.037476,521.827332 797.231445,521.400940 797.710205,520.882935 
	C800.443481,519.143250 802.359497,517.512878 797.611633,515.968018 
	C797.260071,515.718079 797.136536,515.595398 796.821045,515.226013 
	C794.744751,515.161011 792.860352,515.342712 790.654907,515.597168 
	C789.900940,515.618835 789.467896,515.567810 788.851013,515.240723 
	C785.064270,511.963745 782.401306,512.655212 779.700562,516.511658 
	C778.413574,518.349365 775.083923,520.789307 773.858215,520.254578 
	C770.237488,518.674927 766.280029,516.384033 766.977966,511.168243 
	C767.610291,506.442932 768.331787,501.729523 769.006958,497.005432 
	C769.000000,497.000000 769.010681,497.013763 769.388245,497.051056 
	C774.386597,498.049133 781.149902,495.411224 781.284241,503.945496 
	C781.287903,504.175903 781.687134,504.444702 781.952209,504.619263 
	C783.808777,505.841797 794.924622,504.602448 797.086304,502.862732 
	C797.211548,502.764832 797.528870,502.745300 797.878174,502.664459 
	C798.459778,499.998627 799.153381,497.355743 798.837769,494.839508 
	C797.905823,487.410767 788.335876,481.233429 780.629517,483.070343 
	C779.489014,482.964081 778.733215,482.825897 777.764160,482.394104 
	C775.851135,481.736176 774.109131,480.931854 772.459778,481.090576 
	C767.638062,481.554718 762.853271,482.402924 757.853394,482.840942 
	C752.505066,481.931915 749.654480,479.955078 752.895996,474.408417 
	C753.042664,474.157379 753.046021,473.711761 752.928955,473.436371 
	C752.385498,472.158630 751.776062,470.909027 751.190186,469.649353 
	C750.159607,470.496155 748.763672,471.144806 748.174561,472.230988 
	C746.951111,474.486786 745.816467,476.319763 742.875427,474.476868 
	C742.911865,472.377502 742.942505,470.698181 743.341431,468.983917 
	C749.320007,467.229919 752.654480,462.634827 751.545044,458.675140 
	C750.458679,454.797791 749.585022,450.826385 749.058777,446.838104 
	C748.674255,443.924744 747.831421,442.081268 744.830566,440.873688 
	C743.178101,440.208740 741.343872,437.877350 741.139526,436.117584 
	C740.445068,430.134827 739.318970,424.728149 732.921265,422.232056 
	C732.733887,422.158936 732.716858,421.649231 732.207031,420.030884 
	C735.680237,418.413269 739.343811,416.707001 743.347473,414.997986 
	C744.141785,414.985962 744.595886,414.976746 745.050049,414.967529 
	C746.750061,414.972137 748.450134,414.976776 750.671326,415.331299 
	C752.999146,420.475372 757.097412,420.038605 761.025940,419.989258 
	C762.130310,420.629425 763.234619,421.269623 764.780762,422.285431 
	C767.793945,424.391083 770.299744,426.231903 772.961548,427.809296 
	C774.532593,428.740295 776.350891,429.254089 778.057983,429.955505 
	C778.057983,429.955505 778.528259,429.964233 778.983215,430.248199 
	C780.965393,431.019135 782.492554,431.506073 784.019775,431.993011 
	C784.276184,432.479218 784.532593,432.965454 784.914673,434.081238 
	C785.130981,439.347870 789.083130,439.605011 792.094055,440.929749 
	C792.345093,441.109253 792.574341,441.313263 792.995728,442.048218 
	C794.160522,443.356110 795.111328,444.157562 796.062134,444.959045 
	C797.990845,448.068146 799.919495,451.177277 801.852600,454.900818 
	C802.579773,456.679047 803.302490,457.842896 804.025208,459.006775 
	C804.032410,459.446869 804.039673,459.886993 803.752136,460.812744 
	C802.622742,462.280884 801.788086,463.263397 800.856934,464.359528 
	C803.676758,465.813446 805.802734,466.909576 807.928711,468.005737 
	C807.965271,470.041504 808.001770,472.077301 807.791016,474.737549 
	C805.200073,478.633362 807.335205,479.933746 810.021118,480.991791 
	C810.021118,480.991791 810.045288,481.469849 810.107300,481.987427 
	C810.436707,482.999207 810.704224,483.493408 810.971680,483.987610 
	C811.307800,493.346252 811.643921,502.704895 811.749939,512.610474 
	C811.353699,513.774963 811.187683,514.392517 811.021606,515.010132 
	C811.392883,526.205017 810.727844,537.332397 807.194519,548.017517 
	C804.195862,557.085876 800.829834,566.054871 797.139893,574.864014 
	C795.006592,579.957092 792.368408,584.763367 786.902039,587.672607 
	C783.479248,589.494263 781.144775,593.250000 777.957947,595.655640 
	C774.417236,598.328369 770.462708,600.453003 766.144409,602.801025 
	C765.066467,603.168030 764.532471,603.550354 763.998474,603.932678 
	C762.491211,604.470947 760.983948,605.009216 758.860352,605.780518 
	C757.163086,606.353455 756.082092,606.693359 755.001160,607.033264 
	C753.992554,607.573486 753.028748,608.466492 751.968567,608.601257 
	C734.613525,610.806641 717.220398,612.149536 699.362915,610.221680 
z"/>
<path fill="#AA3D5E" opacity="1.000000" stroke="none" 
	d="
M743.007324,415.000793 
	C739.343811,416.707001 735.680237,418.413269 732.207031,420.030884 
	C732.716858,421.649231 732.733887,422.158936 732.921265,422.232056 
	C739.318970,424.728149 740.445068,430.134827 741.139526,436.117584 
	C741.343872,437.877350 743.178101,440.208740 744.830566,440.873688 
	C747.831421,442.081268 748.674255,443.924744 749.058777,446.838104 
	C749.585022,450.826385 750.458679,454.797791 751.545044,458.675140 
	C752.654480,462.634827 749.320007,467.229919 743.329163,468.595154 
	C742.759277,462.471130 739.049683,460.536102 734.016724,460.042816 
	C731.267395,456.886536 729.290527,453.079926 723.522278,455.424500 
	C720.597656,456.613251 717.353638,455.148224 715.640747,450.727142 
	C712.535767,442.713104 709.686401,434.163025 701.391907,429.408051 
	C700.573914,428.939148 700.537781,427.264893 699.784058,426.499176 
	C695.658997,422.308441 691.686584,417.900604 687.133179,414.221588 
	C684.068298,411.745300 680.216675,410.152252 676.553589,408.533875 
	C673.282776,407.088837 669.787903,406.150970 666.165466,404.911774 
	C666.455078,403.452393 666.509033,401.552521 667.256531,399.982849 
	C667.760315,398.924927 669.862305,397.442749 670.191589,397.671692 
	C673.279175,399.818665 675.049255,396.925079 677.667114,396.056213 
	C680.436646,396.714874 682.864319,397.422821 685.727539,398.327332 
	C686.778687,398.665649 687.394348,398.807373 688.010010,398.949097 
	C694.319824,399.983917 700.675476,400.806244 706.917603,402.154358 
	C709.547180,402.722260 711.937073,404.399872 714.845337,406.042603 
	C717.789551,407.573029 720.262512,409.800995 723.005737,406.922363 
	C728.067993,408.267914 733.130188,409.613434 738.711304,411.252930 
	C739.840149,412.017303 740.450134,412.487732 741.060181,412.958130 
	C741.496094,412.962585 741.931946,412.967041 742.689392,413.317871 
	C743.009766,414.109772 743.008545,414.555298 743.007324,415.000793 
z"/>
<path fill="#A33A5A" opacity="1.000000" stroke="none" 
	d="
M777.866028,429.680542 
	C776.350891,429.254089 774.532593,428.740295 772.961548,427.809296 
	C770.299744,426.231903 767.793945,424.391083 765.113525,422.320648 
	C770.492859,422.296509 774.404419,425.303375 777.866028,429.680542 
z"/>
<path fill="#A33A5A" opacity="1.000000" stroke="none" 
	d="
M760.882324,419.681580 
	C757.097412,420.038605 752.999146,420.475372 751.096252,415.338379 
	C754.246216,416.454987 757.492432,417.914459 760.882324,419.681580 
z"/>
<path fill="#A33A5A" opacity="1.000000" stroke="none" 
	d="
M791.984863,440.601440 
	C789.083130,439.605011 785.130981,439.347870 785.037231,434.327271 
	C787.314697,436.053467 789.595154,438.163300 791.984863,440.601440 
z"/>
<path fill="#A33A5A" opacity="1.000000" stroke="none" 
	d="
M807.866089,467.666382 
	C805.802734,466.909576 803.676758,465.813446 800.856934,464.359528 
	C801.788086,463.263397 802.622742,462.280884 803.750977,461.142822 
	C805.297485,463.100525 806.550537,465.213745 807.866089,467.666382 
z"/>
<path fill="#A33A5A" opacity="1.000000" stroke="none" 
	d="
M633.567383,388.752930 
	C630.939270,391.928741 628.017822,392.413757 625.183228,388.259033 
	C627.832703,388.123627 630.516968,388.369904 633.567383,388.752930 
z"/>
<path fill="#A33A5A" opacity="1.000000" stroke="none" 
	d="
M256.689392,399.078491 
	C256.823090,403.725769 254.307755,402.835632 251.275940,401.146606 
	C252.772751,400.314392 254.543625,399.691833 256.689392,399.078491 
z"/>
<path fill="#A33A5A" opacity="1.000000" stroke="none" 
	d="
M430.245483,410.121002 
	C430.032928,408.588104 430.052338,407.185181 430.102966,405.360046 
	C431.301941,405.732269 432.469696,406.526733 433.814026,407.569366 
	C432.819550,408.628693 431.648529,409.439850 430.245483,410.121002 
z"/>
<path fill="#A33A5A" opacity="1.000000" stroke="none" 
	d="
M722.658691,406.740753 
	C720.262512,409.800995 717.789551,407.573029 715.145447,406.235199 
	C717.461243,406.158569 719.886414,406.358856 722.658691,406.740753 
z"/>
<path fill="#A33A5A" opacity="1.000000" stroke="none" 
	d="
M809.993225,480.630188 
	C807.335205,479.933746 805.200073,478.633362 807.793091,475.173828 
	C808.683350,476.746613 809.324341,478.507599 809.993225,480.630188 
z"/>
<path fill="#A33A5A" opacity="1.000000" stroke="none" 
	d="
M804.148193,458.765717 
	C803.302490,457.842896 802.579773,456.679047 801.933411,455.252747 
	C802.763550,456.168427 803.517334,457.346527 804.148193,458.765717 
z"/>
<path fill="#A33A5A" opacity="1.000000" stroke="none" 
	d="
M783.848755,431.683746 
	C782.492554,431.506073 780.965393,431.019135 779.218140,430.259094 
	C780.557983,430.448853 782.117859,430.911682 783.848755,431.683746 
z"/>
<path fill="#A33A5A" opacity="1.000000" stroke="none" 
	d="
M795.963623,444.650452 
	C795.111328,444.157562 794.160522,443.356110 793.141846,442.226532 
	C794.004333,442.712891 794.934692,443.527374 795.963623,444.650452 
z"/>
<path fill="#A33A5A" opacity="1.000000" stroke="none" 
	d="
M442.613708,404.069580 
	C442.446930,404.845734 442.002838,405.775482 441.258789,406.832886 
	C441.417969,406.048126 441.877167,405.135651 442.613708,404.069580 
z"/>
<path fill="#A33A5A" opacity="1.000000" stroke="none" 
	d="
M740.997620,412.719849 
	C740.450134,412.487732 739.840149,412.017303 739.119690,411.268372 
	C739.651184,411.487091 740.293152,411.984314 740.997620,412.719849 
z"/>
<path fill="#A33A5A" opacity="1.000000" stroke="none" 
	d="
M811.191406,514.785645 
	C811.187683,514.392517 811.353699,513.774963 811.740479,513.077454 
	C811.761169,513.518799 811.561218,514.039978 811.191406,514.785645 
z"/>
<path fill="#A33A5A" opacity="1.000000" stroke="none" 
	d="
M687.784363,398.786224 
	C687.394348,398.807373 686.778687,398.665649 686.077759,398.310425 
	C686.514587,398.272400 687.036682,398.447876 687.784363,398.786224 
z"/>
<path fill="#AA3D5E" opacity="1.000000" stroke="none" 
	d="
M755.350708,607.019043 
	C756.082092,606.693359 757.163086,606.353455 758.590332,606.001465 
	C757.857849,606.327942 756.779053,606.666382 755.350708,607.019043 
z"/>
<path fill="#A33A5A" opacity="1.000000" stroke="none" 
	d="
M743.347473,414.997986 
	C743.008545,414.555298 743.009766,414.109772 743.016113,413.330231 
	C743.616333,413.473663 744.211487,413.951141 744.928345,414.698059 
	C744.595886,414.976746 744.141785,414.985962 743.347473,414.997986 
z"/>
<path fill="#AA3D5E" opacity="1.000000" stroke="none" 
	d="
M764.272827,603.872314 
	C764.532471,603.550354 765.066467,603.168030 765.802734,602.889160 
	C765.519104,603.265686 765.033142,603.538757 764.272827,603.872314 
z"/>
<path fill="#A33A5A" opacity="1.000000" stroke="none" 
	d="
M810.906982,483.712463 
	C810.704224,483.493408 810.436707,482.999207 810.109497,482.226746 
	C810.313904,482.444733 810.578064,482.941010 810.906982,483.712463 
z"/>
<path fill="#A33A5A" opacity="1.000000" stroke="none" 
	d="
M232.029861,598.497803 
	C229.942657,597.005249 227.841125,595.113647 225.455078,593.046875 
	C224.868698,592.104126 224.566849,591.336548 224.139694,590.285278 
	C228.717117,590.689148 232.532318,592.253601 232.029861,598.497803 
z"/>
<path fill="#A33A5A" opacity="1.000000" stroke="none" 
	d="
M222.950745,587.655396 
	C222.034729,586.560852 221.091003,585.111755 220.076263,583.333984 
	C220.977844,584.437073 221.950439,585.868958 222.950745,587.655396 
z"/>
<path fill="#A33A5A" opacity="1.000000" stroke="none" 
	d="
M239.054932,603.509644 
	C238.719482,603.780212 238.322769,603.748535 237.636856,603.650269 
	C236.985123,602.923462 236.622589,602.263306 236.127441,601.353760 
	C236.994446,601.805359 237.994049,602.506348 239.054932,603.509644 
z"/>
<path fill="#A33A5A" opacity="1.000000" stroke="none" 
	d="
M249.916077,607.777710 
	C249.477722,607.790894 248.962906,607.580872 248.229446,607.196777 
	C248.620407,607.200012 249.230026,607.377258 249.916077,607.777710 
z"/>
<path fill="#A33A5A" opacity="1.000000" stroke="none" 
	d="
M318.368256,609.198425 
	C324.427887,608.879333 330.852081,608.749207 337.636719,608.820312 
	C331.575714,609.143494 325.154297,609.265503 318.368256,609.198425 
z"/>
<path fill="#A33A5A" opacity="1.000000" stroke="none" 
	d="
M385.483032,609.018005 
	C390.746643,605.403381 396.662659,606.633057 402.799622,608.657227 
	C397.318024,608.995178 391.633667,609.010193 385.483032,609.018005 
z"/>
<path fill="#A33A5A" opacity="1.000000" stroke="none" 
	d="
M352.368469,609.206848 
	C357.761047,608.887024 363.518585,608.754211 369.636230,608.822266 
	C364.242035,609.146729 358.487732,609.270264 352.368469,609.206848 
z"/>
<path fill="#A33A5A" opacity="1.000000" stroke="none" 
	d="
M429.119171,603.555359 
	C430.462952,602.438721 431.959473,601.574158 433.734619,600.905762 
	C433.611267,602.057556 433.209351,603.013184 432.685822,604.249878 
	C431.466797,604.289734 430.369354,604.048645 429.119171,603.555359 
z"/>
<path fill="#A33A5A" opacity="1.000000" stroke="none" 
	d="
M425.275543,604.871338 
	C425.283539,604.775085 425.481689,604.602356 425.869141,604.354736 
	C425.862488,604.453552 425.664917,604.625244 425.275543,604.871338 
z"/>
<path fill="#7F438B" opacity="1.000000" stroke="none" 
	d="
M276.580566,529.124268 
	C276.488708,521.333374 276.396851,513.542480 276.616028,505.077271 
	C276.780029,502.035797 276.632996,499.668610 276.485931,497.301422 
	C276.473053,492.281067 276.460175,487.260712 276.775208,481.971008 
	C278.029480,485.757080 280.585907,487.635010 284.695374,488.400818 
	C298.420868,490.958557 312.073090,493.907776 325.788788,496.521271 
	C330.659882,497.449463 335.996216,496.909271 340.491791,498.656342 
	C355.321869,504.419708 371.017792,504.763458 386.370880,507.351837 
	C394.211487,508.673676 402.566498,508.127045 409.853088,512.257935 
	C388.177185,523.576172 366.501251,534.894409 344.509888,545.895264 
	C346.142853,543.080750 348.091217,540.583435 350.237762,537.832092 
	C347.189514,535.971069 344.209717,534.222839 340.364777,536.559143 
	C339.394989,537.148376 337.821564,537.138306 336.625488,536.900696 
	C323.985809,534.389648 311.359283,531.810547 298.746094,529.169189 
	C295.389679,528.466370 292.108765,526.891846 288.761658,526.793701 
	C285.132080,526.687256 280.223206,522.580750 277.638367,529.155029 
	C277.051056,529.128113 276.815796,529.126160 276.580566,529.124268 
z"/>
<path fill="#12B2CA" opacity="1.000000" stroke="none" 
	d="
M276.853516,464.717926 
	C276.710236,455.752655 276.549927,446.787598 276.429291,437.822021 
	C276.338226,431.056030 282.365173,427.284943 288.290070,430.584076 
	C307.724548,441.405670 327.155548,452.236572 346.459839,463.287567 
	C356.258972,468.897247 365.783691,474.986298 375.978058,481.222046 
	C379.269806,483.761719 382.015961,485.937988 384.762146,488.114227 
	C384.623596,488.541443 384.485077,488.968628 384.346558,489.395844 
	C382.835175,489.395844 381.288483,489.605713 379.818756,489.358276 
	C374.427032,488.450623 369.021423,487.563812 363.694489,486.347412 
	C355.986938,484.587311 348.387085,482.339996 340.655579,480.706146 
	C336.187927,479.762054 331.495789,479.908295 327.003174,479.048767 
	C317.090820,477.152374 307.184692,475.159546 297.384094,472.763977 
	C290.226685,471.014496 281.025970,474.154938 276.853516,464.717926 
z"/>
<path fill="#487CA7" opacity="1.000000" stroke="none" 
	d="
M276.693481,465.189819 
	C281.025970,474.154938 290.226685,471.014496 297.384094,472.763977 
	C307.184692,475.159546 317.090820,477.152374 327.003174,479.048767 
	C331.495789,479.908295 336.187927,479.762054 340.655579,480.706146 
	C348.387085,482.339996 355.986938,484.587311 363.694489,486.347412 
	C369.021423,487.563812 374.427032,488.450623 379.818756,489.358276 
	C381.288483,489.605713 382.835175,489.395844 384.346558,489.395844 
	C384.485077,488.968628 384.623596,488.541443 384.762146,488.114227 
	C382.015961,485.937988 379.269806,483.761719 376.298767,481.352661 
	C377.622070,481.478455 379.340210,481.520630 380.691193,482.246368 
	C390.369843,487.445496 399.980865,492.770813 409.599091,498.081909 
	C416.526794,501.907288 416.876251,507.083221 410.211975,512.126709 
	C402.566498,508.127045 394.211487,508.673676 386.370880,507.351837 
	C371.017792,504.763458 355.321869,504.419708 340.491791,498.656342 
	C335.996216,496.909271 330.659882,497.449463 325.788788,496.521271 
	C312.073090,493.907776 298.420868,490.958557 284.695374,488.400818 
	C280.585907,487.635010 278.029480,485.757080 276.874725,481.537903 
	C276.608734,476.136627 276.571075,470.899170 276.693481,465.189819 
z"/>
<path fill="#B53C61" opacity="1.000000" stroke="none" 
	d="
M277.990387,529.180115 
	C280.223206,522.580750 285.132080,526.687256 288.761658,526.793701 
	C292.108765,526.891846 295.389679,528.466370 298.746094,529.169189 
	C311.359283,531.810547 323.985809,534.389648 336.625488,536.900696 
	C337.821564,537.138306 339.394989,537.148376 340.364777,536.559143 
	C344.209717,534.222839 347.189514,535.971069 350.237762,537.832092 
	C348.091217,540.583435 346.142853,543.080750 344.148682,545.946594 
	C334.321045,551.616455 324.539215,556.917725 314.556671,561.990967 
	C315.923431,560.184753 317.490875,558.606567 319.562469,556.520691 
	C316.758728,556.812317 314.659119,557.429260 312.674194,557.169556 
	C303.066711,555.912476 293.509766,554.254883 283.891205,553.104919 
	C280.736786,552.727844 278.997192,551.979309 278.908386,548.493896 
	C278.744324,542.052307 278.311340,535.617676 277.990387,529.180115 
z"/>
<path fill="#B64D6C" opacity="1.000000" stroke="none" 
	d="
M277.638367,529.155029 
	C278.311340,535.617676 278.744324,542.052307 278.908386,548.493896 
	C278.997192,551.979309 280.736786,552.727844 283.891205,553.104919 
	C293.509766,554.254883 303.066711,555.912476 312.674194,557.169556 
	C314.659119,557.429260 316.758728,556.812317 319.562469,556.520691 
	C317.490875,558.606567 315.923431,560.184753 314.185516,562.064941 
	C305.322205,567.158264 296.733917,572.154175 287.899933,576.669373 
	C281.951630,579.709717 276.105469,575.719116 276.112732,568.853638 
	C276.126434,555.914612 276.330750,542.975830 276.518188,529.580566 
	C276.815796,529.126160 277.051056,529.128113 277.638367,529.155029 
z"/>
<path fill="#8B3F57" opacity="1.000000" stroke="none" 
	d="
M276.388367,497.699341 
	C276.632996,499.668610 276.780029,502.035797 276.697235,504.602722 
	C276.408539,502.567413 276.349670,500.332336 276.388367,497.699341 
z"/>
<path fill="#8B3F57" opacity="1.000000" stroke="none" 
	d="
M733.589294,460.043030 
	C739.049683,460.536102 742.759277,462.471130 742.960815,468.630096 
	C742.942505,470.698181 742.911865,472.377502 742.629272,474.691620 
	C741.665222,477.141357 739.856445,479.445343 740.413452,480.694427 
	C745.156921,491.332397 742.804626,502.191162 741.851929,513.171570 
	C741.362671,513.813477 741.030334,514.298828 740.697937,514.784180 
	C740.564270,507.136902 740.099548,499.476227 740.408936,491.846924 
	C740.628906,486.423309 739.744690,482.356415 733.815430,480.881836 
	C732.943604,480.665039 732.228821,479.817139 732.049927,479.690857 
	C734.857727,476.924805 737.908447,474.499207 740.107544,471.457825 
	C740.946106,470.298187 740.337891,467.465515 739.505310,465.851044 
	C737.588257,462.133667 732.490601,460.964478 729.093506,463.033997 
	C724.846863,465.621063 724.360291,469.994659 727.959412,476.779633 
	C721.131104,473.913605 714.799255,471.233643 708.450256,468.594940 
	C672.499756,453.653687 634.906128,444.961121 596.429932,440.192291 
	C576.959045,437.779022 557.287781,436.982056 537.331604,435.284821 
	C538.876465,434.750885 540.805359,434.032288 542.715942,434.077972 
	C558.302185,434.450745 573.892029,434.816833 589.464050,435.543365 
	C593.354797,435.724884 597.147278,437.455658 601.049622,438.046997 
	C615.744263,440.273590 630.486389,442.194611 645.160828,444.541718 
	C648.351013,445.051971 651.265442,447.089539 654.426392,448.015625 
	C665.598938,451.288788 676.940674,454.027893 687.991516,457.659393 
	C697.073547,460.643982 705.915833,464.417603 714.707825,468.204926 
	C720.734131,470.800842 720.866699,471.193817 723.565552,465.225800 
	C725.573181,460.786346 728.785522,459.586823 733.589294,460.043030 
z"/>
<path fill="#AE4362" opacity="1.000000" stroke="none" 
	d="
M740.604004,515.247192 
	C741.030334,514.298828 741.362671,513.813477 741.984131,513.436279 
	C743.862122,513.683289 745.451172,513.822083 747.337463,513.981140 
	C748.032043,514.012085 748.429321,514.022766 748.926025,514.346924 
	C749.056946,515.096008 749.088379,515.531677 748.913452,516.251587 
	C749.458069,519.359314 750.208984,522.182678 750.959839,525.006042 
	C749.908264,524.635864 748.856689,524.265686 746.669373,523.495667 
	C747.515564,525.804749 748.103821,527.171082 748.512878,528.589111 
	C748.983276,530.220154 749.295044,531.897034 749.675781,533.553955 
	C748.110901,533.341797 746.535400,533.186340 744.985657,532.894043 
	C744.189941,532.743896 743.440308,532.349609 742.307983,532.026245 
	C741.687256,529.813293 741.428284,527.639832 740.928467,525.230591 
	C740.628418,521.900024 740.569275,518.805115 740.604004,515.247192 
z"/>
<path fill="#AE4362" opacity="1.000000" stroke="none" 
	d="
M739.598022,536.961670 
	C739.138062,537.694824 738.296204,538.957703 737.410767,538.989075 
	C732.834778,539.151184 729.802551,540.587952 728.284180,545.518921 
	C727.562927,547.861206 725.174316,547.052917 724.087830,544.547180 
	C722.664917,541.265686 717.268494,540.658264 715.227356,543.612366 
	C714.854614,544.151855 715.706299,546.456238 716.166931,546.512146 
	C721.489014,547.158325 721.130066,551.012512 720.975342,554.700745 
	C720.824219,558.302124 720.496826,561.896179 720.045776,565.791504 
	C709.579163,561.110657 699.354004,556.045959 689.031067,551.189026 
	C683.931580,548.789673 678.651794,546.773682 673.193726,544.341553 
	C670.868774,539.714844 666.398438,539.418640 662.580688,538.087158 
	C655.210083,535.516663 647.798340,533.064270 640.520691,530.272339 
	C641.826172,529.432556 643.166016,529.079468 644.175598,528.298950 
	C647.728638,525.552063 650.732544,525.294006 653.142395,529.703979 
	C653.372925,530.125671 654.179932,530.232361 655.482605,530.843201 
	C655.166138,527.576843 654.749939,524.993896 654.741333,522.409668 
	C654.737488,521.260437 655.555481,520.108521 656.000488,518.957764 
	C656.967468,519.403137 657.943237,519.830872 658.899902,520.297424 
	C661.372559,521.503296 663.836792,522.726318 666.304382,523.942444 
	C666.574463,525.310120 666.844482,526.677734 666.979126,528.695007 
	C666.843323,530.213806 666.842896,531.082947 666.842407,531.952148 
	C667.284485,531.584839 667.726562,531.217590 668.168640,530.850281 
	C671.665527,532.672424 675.163757,534.492065 678.658325,536.318604 
	C679.388245,536.700134 680.095764,537.432190 680.829041,537.452759 
	C690.042480,537.711853 699.188843,538.100647 708.135376,534.653564 
	C715.547180,531.797852 716.985657,526.021667 717.368652,519.293274 
	C717.415527,518.469604 717.085388,517.429504 717.473755,516.861572 
	C718.246399,515.731567 719.397644,514.860413 720.392517,513.882324 
	C721.258789,514.910645 722.791077,515.889526 722.871826,516.976196 
	C723.165649,520.930786 722.929138,524.921997 722.975525,528.898376 
	C723.055969,535.792358 725.074097,537.383789 731.837585,536.565491 
	C734.240845,536.274719 736.740479,536.780945 739.598022,536.961670 
z"/>
<path fill="#A33A5A" opacity="1.000000" stroke="none" 
	d="
M714.612427,576.963867 
	C713.753662,579.813232 712.906006,582.995544 711.337830,585.770569 
	C709.093140,589.742920 706.486816,593.546570 703.677185,597.142761 
	C702.810486,598.252136 700.776672,598.449707 698.961670,598.932495 
	C701.778809,594.309326 704.869751,589.788513 708.059448,585.338440 
	C710.063599,582.542358 712.215881,579.852417 714.612427,576.963867 
z"/>
<path fill="#AA3D5E" opacity="1.000000" stroke="none" 
	d="
M638.761841,570.648438 
	C638.640381,571.407776 638.066223,572.414978 637.912354,572.354309 
	C634.016479,570.821289 630.164734,569.176208 626.162964,567.228394 
	C630.182068,568.070251 634.343567,569.234497 638.761841,570.648438 
z"/>
<path fill="#AA3D5E" opacity="1.000000" stroke="none" 
	d="
M667.061462,580.945435 
	C663.729858,583.226318 661.589966,582.473572 661.178833,578.749268 
	C663.181030,579.255981 665.008423,579.983337 667.061462,580.945435 
z"/>
<path fill="#AA3D5E" opacity="1.000000" stroke="none" 
	d="
M649.519897,574.401123 
	C646.930237,573.824097 644.112305,572.956421 641.160461,571.784424 
	C643.781616,572.356873 646.536682,573.233643 649.519897,574.401123 
z"/>
<path fill="#A33A5A" opacity="1.000000" stroke="none" 
	d="
M498.691345,553.444824 
	C499.116364,554.747192 499.186127,555.953979 499.255890,557.160828 
	C498.893646,557.287964 498.531403,557.415161 498.169159,557.542297 
	C497.767029,556.477844 497.364899,555.413391 496.951111,554.031860 
	C497.404999,553.592957 497.870514,553.471130 498.691345,553.444824 
z"/>
<path fill="#A33A5A" opacity="1.000000" stroke="none" 
	d="
M512.724976,552.764771 
	C511.552490,553.082214 510.090393,553.262268 508.345032,553.264038 
	C509.519623,552.933044 510.977478,552.780273 512.724976,552.764771 
z"/>
<path fill="#A33A5A" opacity="1.000000" stroke="none" 
	d="
M540.702881,552.902466 
	C539.803894,553.133362 538.647400,553.221436 537.243652,553.118530 
	C538.146118,552.871521 539.295776,552.815552 540.702881,552.902466 
z"/>
<path fill="#AA3D5E" opacity="1.000000" stroke="none" 
	d="
M654.543945,576.300964 
	C653.307434,576.162109 651.825989,575.737061 650.187866,574.933838 
	C651.453735,575.042053 652.876404,575.528442 654.543945,576.300964 
z"/>
<path fill="#AA3D5E" opacity="1.000000" stroke="none" 
	d="
M605.746460,561.722412 
	C604.776733,561.834900 603.530945,561.726318 602.151550,561.339233 
	C603.168823,561.207581 604.319580,561.354492 605.746460,561.722412 
z"/>
<path fill="#AA3D5E" opacity="1.000000" stroke="none" 
	d="
M610.797241,562.816467 
	C610.719910,563.375610 610.450806,563.730835 610.181702,564.086060 
	C609.806702,563.684143 609.431702,563.282227 609.023193,562.634460 
	C609.528320,562.463257 610.066895,562.537903 610.797241,562.816467 
z"/>
<path fill="#AA3D5E" opacity="1.000000" stroke="none" 
	d="
M659.679688,578.177490 
	C659.047424,578.194885 658.215759,577.949951 657.202148,577.417725 
	C657.840271,577.392029 658.660217,577.653564 659.679688,578.177490 
z"/>
<path fill="#AA3D5E" opacity="1.000000" stroke="none" 
	d="
M618.777466,564.816406 
	C618.384827,564.945007 617.800354,564.884583 617.126709,564.635010 
	C617.553589,564.506348 618.069580,564.566895 618.777466,564.816406 
z"/>
<path fill="#AA3D5E" opacity="1.000000" stroke="none" 
	d="
M614.773315,563.823059 
	C614.385254,563.954407 613.800476,563.903381 613.120972,563.667480 
	C613.543030,563.535339 614.059814,563.588074 614.773315,563.823059 
z"/>
<path fill="#A33A5A" opacity="1.000000" stroke="none" 
	d="
M494.768127,553.741943 
	C494.451141,553.998413 493.889557,554.146851 493.176758,554.166382 
	C493.524872,553.903015 494.024200,553.768433 494.768127,553.741943 
z"/>
<path fill="#B64D6C" opacity="1.000000" stroke="none" 
	d="
M666.202393,523.628784 
	C663.836792,522.726318 661.372559,521.503296 658.899902,520.297424 
	C657.943237,519.830872 656.967468,519.403137 656.000488,518.957764 
	C655.555481,520.108521 654.737488,521.260437 654.741333,522.409668 
	C654.749939,524.993896 655.166138,527.576843 655.482605,530.843201 
	C654.179932,530.232361 653.372925,530.125671 653.142395,529.703979 
	C650.732544,525.294006 647.728638,525.552063 644.175598,528.298950 
	C643.166016,529.079468 641.826172,529.432556 640.264282,530.043335 
	C627.450806,527.188477 615.061951,524.022095 602.549622,521.458557 
	C596.068604,520.130676 589.368652,519.870789 582.333618,519.093140 
	C582.343994,515.227905 579.433838,514.900391 576.853455,514.207275 
	C569.466919,512.223145 569.594971,512.182190 571.373108,504.661743 
	C571.914978,502.369537 571.288513,499.786682 571.114929,497.342804 
	C570.798706,492.894135 569.920044,488.406555 570.299255,484.023682 
	C570.466431,482.090332 573.135010,480.373383 574.796753,478.233337 
	C588.944702,479.281616 603.001709,480.358795 616.968689,482.141174 
	C625.093994,483.178070 633.158203,485.026825 641.097229,487.095825 
	C648.841003,489.113922 656.468140,491.670959 663.958435,494.491058 
	C665.418701,495.040863 667.003418,497.983337 666.835327,499.651337 
	C666.198608,505.969055 668.482971,509.865692 674.632935,511.513519 
	C675.238953,511.675873 675.790344,512.172668 676.274231,512.615723 
	C676.611755,512.924744 676.790649,513.407227 677.449463,514.475586 
	C674.396606,514.475586 671.812622,514.475586 668.513245,514.475586 
	C667.780334,517.160522 666.940369,520.237793 666.202393,523.628784 
z"/>
<path fill="#B64D6C" opacity="1.000000" stroke="none" 
	d="
M668.070251,530.573486 
	C667.726562,531.217590 667.284485,531.584839 666.842407,531.952148 
	C666.842896,531.082947 666.843323,530.213806 666.965637,529.051025 
	C667.382324,529.270508 667.677063,529.783630 668.070251,530.573486 
z"/>
<path fill="#AE4362" opacity="1.000000" stroke="none" 
	d="
M740.823242,535.129822 
	C740.792236,535.290222 740.591858,535.604736 740.232056,535.952759 
	C740.241394,535.731506 740.435242,535.497437 740.823242,535.129822 
z"/>
<path fill="#020101" opacity="1.000000" stroke="none" 
	d="
M749.119873,515.967285 
	C749.088379,515.531677 749.056946,515.096008 749.006653,513.893066 
	C748.590149,503.001434 750.208862,493.718445 759.070129,487.117401 
	C764.788757,482.857452 771.396973,482.965546 777.977478,482.687683 
	C778.733215,482.825897 779.489014,482.964081 780.921021,483.266052 
	C792.688538,487.167969 797.070679,492.480865 797.528870,502.745300 
	C797.528870,502.745300 797.211548,502.764832 796.631714,502.797546 
	C793.916809,502.820923 791.763184,502.628540 789.650818,502.842377 
	C785.871033,503.225006 783.435242,502.419891 781.699707,498.372284 
	C779.474182,493.181976 774.121704,492.914764 769.010681,497.013763 
	C769.010681,497.013763 769.000000,497.000000 768.678223,497.149994 
	C763.968201,503.949493 764.054077,511.262024 766.549561,518.246094 
	C767.427917,520.704224 771.183960,523.213928 773.925171,523.605164 
	C776.382690,523.956055 780.548767,522.110291 781.645447,520.019165 
	C783.462280,516.554932 785.814453,515.765747 789.034912,515.516785 
	C789.467896,515.567810 789.900940,515.618835 791.076172,515.707581 
	C793.549988,515.654419 795.281433,515.563599 797.012939,515.472778 
	C797.136536,515.595398 797.260071,515.718079 797.568726,516.317688 
	C797.644409,518.187988 797.534912,519.581238 797.425415,520.974548 
	C797.231445,521.400940 797.037476,521.827332 796.544495,522.815674 
	C793.546143,529.225525 788.721069,532.647400 782.968811,535.011169 
	C782.531677,535.056396 782.094482,535.101685 781.011108,535.197510 
	C779.251831,535.475891 778.138794,535.703735 777.025696,535.931519 
	C775.302368,535.879211 773.579102,535.826904 771.100586,535.679504 
	C758.928284,533.743347 752.333618,526.684387 749.119873,515.967285 
z"/>
<path fill="#8B3F57" opacity="1.000000" stroke="none" 
	d="
M748.913513,516.251587 
	C752.333618,526.684387 758.928284,533.743347 770.673340,535.743408 
	C769.106201,539.098145 767.107910,539.125122 764.183472,536.807617 
	C761.136658,534.393127 757.395081,532.866760 754.274780,530.528442 
	C752.821411,529.439209 752.117920,527.349304 751.017212,525.359497 
	C750.208984,522.182678 749.458069,519.359314 748.913513,516.251587 
z"/>
<path fill="#8B3F57" opacity="1.000000" stroke="none" 
	d="
M777.305481,536.133545 
	C778.138794,535.703735 779.251831,535.475891 780.703003,535.318298 
	C781.030212,535.728333 781.019409,536.068237 780.989441,536.661011 
	C779.841919,536.721130 778.713623,536.528320 777.305481,536.133545 
z"/>
<path fill="#AA3D5E" opacity="1.000000" stroke="none" 
	d="
M747.040161,513.960876 
	C745.451172,513.822083 743.862122,513.683289 742.140930,513.279785 
	C742.804626,502.191162 745.156921,491.332397 740.413452,480.694427 
	C739.856445,479.445343 741.665222,477.141357 742.623413,475.111694 
	C745.816467,476.319763 746.951111,474.486786 748.174561,472.230988 
	C748.763672,471.144806 750.159607,470.496155 751.190186,469.649353 
	C751.776062,470.909027 752.385498,472.158630 752.928955,473.436371 
	C753.046021,473.711761 753.042664,474.157379 752.895996,474.408417 
	C749.654480,479.955078 752.505066,481.931915 757.753906,483.161163 
	C756.981384,484.935730 756.305054,486.367126 755.201904,487.286407 
	C748.349182,492.996643 746.346191,500.455780 747.013306,508.979950 
	C747.142517,510.630859 747.037292,512.300110 747.040161,513.960876 
z"/>
<path fill="#8B3F57" opacity="1.000000" stroke="none" 
	d="
M788.851013,515.240723 
	C785.814453,515.765747 783.462280,516.554932 781.645447,520.019165 
	C780.548767,522.110291 776.382690,523.956055 773.925171,523.605164 
	C771.183960,523.213928 767.427917,520.704224 766.549561,518.246094 
	C764.054077,511.262024 763.968201,503.949493 768.685181,497.155457 
	C768.331787,501.729523 767.610291,506.442932 766.977966,511.168243 
	C766.280029,516.384033 770.237488,518.674927 773.858215,520.254578 
	C775.083923,520.789307 778.413574,518.349365 779.700562,516.511658 
	C782.401306,512.655212 785.064270,511.963745 788.851013,515.240723 
z"/>
<path fill="#8B3F57" opacity="1.000000" stroke="none" 
	d="
M747.337463,513.981140 
	C747.037292,512.300110 747.142517,510.630859 747.013306,508.979950 
	C746.346191,500.455780 748.349182,492.996643 755.201904,487.286407 
	C756.305054,486.367126 756.981384,484.935730 757.954529,483.420837 
	C762.853271,482.402924 767.638062,481.554718 772.459778,481.090576 
	C774.109131,480.931854 775.851135,481.736176 777.764160,482.394104 
	C771.396973,482.965546 764.788757,482.857452 759.070129,487.117401 
	C750.208862,493.718445 748.590149,503.001434 748.907227,513.579590 
	C748.429321,514.022766 748.032043,514.012085 747.337463,513.981140 
z"/>
<path fill="#8B3F57" opacity="1.000000" stroke="none" 
	d="
M769.388245,497.051056 
	C774.121704,492.914764 779.474182,493.181976 781.699707,498.372284 
	C783.435242,502.419891 785.871033,503.225006 789.650818,502.842377 
	C791.763184,502.628540 793.916809,502.820923 796.506470,502.895447 
	C794.924622,504.602448 783.808777,505.841797 781.952209,504.619263 
	C781.687134,504.444702 781.287903,504.175903 781.284241,503.945496 
	C781.149902,495.411224 774.386597,498.049133 769.388245,497.051056 
z"/>
<path fill="#8B3F57" opacity="1.000000" stroke="none" 
	d="
M797.878174,502.664459 
	C797.070679,492.480865 792.688538,487.167969 781.305786,483.234131 
	C788.335876,481.233429 797.905823,487.410767 798.837769,494.839508 
	C799.153381,497.355743 798.459778,499.998627 797.878174,502.664459 
z"/>
<path fill="#8B3F57" opacity="1.000000" stroke="none" 
	d="
M783.258850,535.179321 
	C788.721069,532.647400 793.546143,529.225525 796.490845,523.164673 
	C797.089111,524.154663 798.125671,525.778687 797.685608,526.493164 
	C794.472961,531.708435 790.278931,535.630737 783.258850,535.179321 
z"/>
<path fill="#8B3F57" opacity="1.000000" stroke="none" 
	d="
M797.710205,520.882935 
	C797.534912,519.581238 797.644409,518.187988 797.796753,516.444946 
	C802.359497,517.512878 800.443481,519.143250 797.710205,520.882935 
z"/>
<path fill="#8B3F57" opacity="1.000000" stroke="none" 
	d="
M796.821045,515.226013 
	C795.281433,515.563599 793.549988,515.654419 791.397217,515.634827 
	C792.860352,515.342712 794.744751,515.161011 796.821045,515.226013 
z"/>
</svg>